0
SECTION
2
HEADER
9
$INSUNITS
70
4
9
$ACADVER
1
AC1014
9
$HANDSEED
5
FFFF
0
ENDSEC
0
SECTION
2
TABLES
0
TABLE
2
VPORT
5
8
100
AcDbSymbolTable
0
ENDTAB
0
TABLE
2
LTYPE
5
5
100
AcDbSymbolTable
0
LTYPE
5
14
100
AcDbSymbolTableRecord
100
AcDbLinetypeTableRecord
2
BYBLOCK
70
0
0
LTYPE
5
15
100
AcDbSymbolTableRecord
100
AcDbLinetypeTableRecord
2
BYLAYER
70
0
0
ENDTAB
0
TABLE
2
LAYER
5
2
100
AcDbSymbolTable
70
2
0
LAYER
5
50
100
AcDbSymbolTableRecord
100
AcDbLayerTableRecord
2
0
70
0
6
CONTINUOUS
0
ENDTAB
0
TABLE
2
STYLE
5
3
100
AcDbSymbolTable
70
1
0
STYLE
5
11
100
AcDbSymbolTableRecord
100
AcDbTextStyleTableRecord
2
STANDARD
70
0
0
ENDTAB
0
TABLE
2
VIEW
5
6
100
AcDbSymbolTable
70
0
0
ENDTAB
0
TABLE
2
UCS
5
7
100
AcDbSymbolTable
70
0
0
ENDTAB
0
TABLE
2
APPID
5
9
100
AcDbSymbolTable
70
2
0
APPID
5
12
100
AcDbSymbolTableRecord
100
AcDbRegAppTableRecord
2
ACAD
70
0
0
ENDTAB
0
TABLE
2
DIMSTYLE
5
A
100
AcDbSymbolTable
70
1
0
ENDTAB
0
TABLE
2
BLOCK_RECORD
5
1
100
AcDbSymbolTable
70
1
0
BLOCK_RECORD
5
1F
100
AcDbSymbolTableRecord
100
AcDbBlockTableRecord
2
*MODEL_SPACE
0
BLOCK_RECORD
5
1B
100
AcDbSymbolTableRecord
100
AcDbBlockTableRecord
2
*PAPER_SPACE
0
ENDTAB
0
ENDSEC
0
SECTION
2
BLOCKS
0
BLOCK
5
20
100
AcDbEntity
100
AcDbBlockBegin
2
*MODEL_SPACE
0
ENDBLK
5
21
100
AcDbEntity
100
AcDbBlockEnd
0
BLOCK
5
1C
100
AcDbEntity
100
AcDbBlockBegin
2
*PAPER_SPACE
0
ENDBLK
5
1D
100
AcDbEntity
100
AcDbBlockEnd
0
ENDSEC
0
SECTION
2
ENTITIES
0
CIRCLE
5
100
100
AcDbEntity
8
0
100
AcDbCircle
10
0.30000000000000004
20
0
30
0
40
28.574999999999999
0
CIRCLE
5
101
100
AcDbEntity
8
0
100
AcDbCircle
10
0.30000000000000004
20
0
30
0
40
25.399999999999999
0
LWPOLYLINE
5
102
100
AcDbEntity
8
0
100
AcDbPolyline
90
182
70
1
43
0.0
10
-7.8695199999999996
20
2.2140560968229477
10
-7.6526799999999993
20
2.0812160968229425
10
-7.2613599999999998
20
1.8402560968229411
10
-7.1215599999999988
20
1.7531360968229317
10
-6.4860399999999983
20
1.3670960968229375
10
-5.9385999999999992
20
1.0460960968229396
10
-5.8428399999999989
20
0.9907760968229431
10
-5.6150800000000043
20
0.85853609682294185
10
-4.9398399999999985
20
0.44513609682294258
10
-4.2947200000000016
20
-0.085383903177058407
10
-3.9072400000000016
20
-0.7325439031770562
10
-3.7777599999999953
20
-1.4063439031770562
10
-3.7777599999999953
20
-1.6311039031770578
10
-3.7907200000000039
20
-1.8335439031770571
10
-3.8036800000000035
20
-2.3203839031770541
10
-3.8036800000000035
20
-2.4832239031770604
10
-3.7861599999999971
20
-2.5951839031770607
10
-3.4286799999999982
20
-2.9344239031770591
10
-2.5387599999999964
20
-3.4903839031770634
10
-1.32856
20
-3.9623439031770591
10
-0.3265599999999993
20
-4.1622639031770614
10
0.0081200000000012512
20
-4.1622639031770614
10
0.35900000000000126
20
-4.1622639031770614
10
1.4129599999999995
20
-3.9617439031770552
10
2.614760000000004
20
-3.4852239031770615
10
3.4521199999999954
20
-2.9181039031770606
10
3.7671199999999896
20
-2.5645839031770556
10
3.7671199999999896
20
-2.4474639031770624
10
3.7671199999999896
20
-1.6174239031770552
10
3.7671199999999896
20
-1.4931039031770597
10
3.7997600000000045
20
-1.1206239031770602
10
3.8992400000000007
20
-0.70722390317706085
10
4.0647199999999941
20
-0.35958390317706063
10
4.2964400000000005
20
-0.059343903177051238
10
4.5952399999999951
20
0.21209609682294711
10
4.9599199999999968
20
0.4717760968229448
10
5.3909600000000015
20
0.73937609682294814
10
5.763919999999997
20
0.95945609682294397
10
5.8889600000000044
20
1.032416096822937
10
7.2300799999999956
20
1.8402560968229411
10
7.6212800000000005
20
2.0812160968229425
10
7.8420799999999993
20
2.2172960968229387
10
8.4938000000000038
20
2.6437760968229362
10
9.2014400000000087
20
3.2537360968229301
10
9.6761600000000083
20
4.0232960968229392
10
9.8499199999999956
20
4.8019760968229441
10
9.8499199999999956
20
5.0610560968229468
10
9.8499199999999956
20
5.3467760968229427
10
9.7813999999999925
20
6.2042960968229366
10
9.6304399999999948
20
7.215896096822938
10
9.478760000000003
20
7.9412960968229385
10
9.40916
20
8.2217360968229425
10
9.407840000000002
20
8.2258160968229355
10
9.3647600000000022
20
8.3794160968229381
10
9.7417999999999996
20
10.071416096822938
10
9.7828400000000073
20
10.256456096822948
10
9.9058400000000049
20
10.809776096822947
10
9.9904399999999995
20
11.245976096822936
10
10.021759999999997
20
11.549936096822941
10
10.026319999999995
20
11.807816096822945
10
10.026319999999995
20
11.893736096822938
10
10.026319999999995
20
11.972456096822945
10
10.018399999999998
20
12.206936096822938
10
9.9873199999999898
20
12.482936096822943
10
9.9189200000000035
20
12.742136096822936
10
9.800479999999995
20
13.005056096822951
10
9.6193999999999971
20
13.292096096822945
10
9.3629599999999993
20
13.621616096822935
10
9.0171199999999931
20
14.014736096822933
10
8.6832800000000034
20
14.373536096822939
10
8.5705999999999918
20
14.491376096822943
10
9.5099599999999942
20
15.390416096822941
10
9.7379599999999957
20
15.152216096822944
10
10.396759999999993
20
14.410616096822944
10
10.954159999999995
20
13.605896096822949
10
11.24311999999999
20
12.819416096822938
10
11.326399999999996
20
12.124256096822945
10
11.326399999999996
20
11.89241609682294
10
11.326399999999996
20
11.779136096822942
10
11.319320000000001
20
11.438576096822937
10
11.288599999999997
20
11.11637609682294
10
11.276960000000004
20
11.044136096822941
10
11.377280000000003
20
11.242136096822932
10
11.777600000000003
20
12.265376096822944
10
11.97608
20
13.214816096822934
10
11.97608
20
13.531136096822944
10
11.97608
20
13.680776096822944
10
11.745079999999996
20
14.128136096822939
10
11.131159999999999
20
14.86313609682294
10
10.252279999999995
20
15.699776096822937
10
9.4839199999999959
20
16.376096096822934
10
9.2267599999999952
20
16.599416096822939
10
8.7874400000000055
20
16.98161609682294
10
7.6075999999999979
20
18.038936096822937
10
7.2112400000000001
20
18.399656096822945
10
5.9897600000000075
20
19.444376096822946
10
4.3295600000000025
20
20.56361609682294
10
2.4097999999999984
20
21.303296096822947
10
0.61027999999999727
20
21.570056096822945
10
0.010640000000007102
20
21.570056096822945
10
0.02047999999999689
20
21.566936096822936
10
-0.6299200000000007
20
21.566936096822936
10
-2.5803999999999991
20
21.277736096822942
10
-4.7906800000000036
20
20.520656096822947
10
-5.2517200000000006
20
20.286296096822937
10
-5.4072399999999963
20
20.207576096822947
10
-5.8494399999999978
20
19.924256096822948
10
-6.4314400000000003
20
19.467296096822935
10
-7.0277200000000004
20
18.92429609682295
10
-7.5068799999999989
20
18.460136096822943
10
-7.665039999999995
20
18.303896096822942
10
-7.7620000000000031
20
18.208136096822933
10
-8.8102
20
17.204936096822934
10
-8.9262399999999982
20
17.098136096822945
10
-9.5147200000000005
20
16.56365609682295
10
-9.76084
20
16.341656096822945
10
-10.492600000000001
20
15.669056096822942
10
-11.329239999999999
20
14.838416096822939
10
-11.913760000000002
20
14.111816096822931
10
-12.133240000000002
20
13.674296096822944
10
-12.133240000000002
20
13.528376096822941
10
-12.133240000000002
20
13.133216096822933
10
-11.830359999999997
20
11.946416096822938
10
-11.248360000000003
20
10.692536096822938
10
-11.109039999999998
20
10.456976096822945
10
-11.133879999999998
20
10.557056096822937
10
-11.21008
20
10.857296096822946
10
-11.258200000000002
20
11.051936096822939
10
-11.272599999999999
20
11.174936096822945
10
-11.272599999999999
20
11.313656096822946
10
-11.272599999999999
20
11.359256096822943
10
-11.272599999999999
20
11.419736096822941
10
-11.270560000000003
20
11.599376096822951
10
-11.267920000000002
20
11.796056096822944
10
-11.267920000000002
20
12.027296096822937
10
-11.195079999999999
20
12.719216096822938
10
-10.917040000000002
20
13.605296096822936
10
-10.350759999999999
20
14.508896096822941
10
-9.6612399999999941
20
15.258896096822943
10
-9.4085199999999976
20
15.482936096822941
10
-9.3942399999999999
20
15.495896096822941
10
-9.1704399999999993
20
15.568976096822951
10
-9.0908800000000021
20
15.568976096822951
10
-9.0583600000000004
20
15.568976096822951
10
-8.8981600000000025
20
15.539576096822945
10
-8.7660400000000003
20
15.466616096822943
10
-8.7470799999999969
20
15.444416096822939
10
-8.7100000000000062
20
15.40025609682294
10
-8.5739199999999958
20
15.236816096822938
10
-8.4488799999999973
20
15.081896096822938
10
-8.4163599999999992
20
15.042056096822947
10
-8.3948799999999988
20
15.01613609682293
10
-8.3688399999999969
20
14.904056096822949
10
-8.3975200000000001
20
14.74793609682294
10
-8.470360000000003
20
14.603936096822938
10
-8.5303599999999999
20
14.523896096822941
10
-8.5543600000000026
20
14.502416096822941
10
-8.7608799999999984
20
14.319416096822941
10
-9.3252400000000009
20
13.710056096822942
10
-9.7490800000000029
20
13.031816096822935
10
-9.9280000000000008
20
12.412616096822937
10
-9.9652000000000012
20
11.950376096822941
10
-9.9652000000000012
20
11.796056096822944
10
-9.9678400000000007
20
11.600816096822939
10
-9.970360000000003
20
11.428256096822942
10
-9.970360000000003
20
11.370296096822941
10
-9.970360000000003
20
11.228936096822935
10
-9.8733999999999984
20
10.805096096822941
10
-9.6585999999999981
20
9.862376096822949
10
-9.4436800000000005
20
8.877416096822941
10
-9.3460000000000019
20
8.3579360968229466
10
-9.3460000000000019
20
8.1847760968229455
10
-9.3460000000000019
20
8.0682560968229389
10
-9.4164399999999979
20
7.7166560968229447
10
-9.5694399999999966
20
7.109216096822939
10
-9.7230399999999957
20
6.2596160968229331
10
-9.7927599999999977
20
5.3610560968229404
10
-9.7927599999999977
20
5.0610560968229468
10
-9.7927599999999977
20
4.7837360968229348
10
-9.6346000000000007
20
3.9509360968229412
10
-9.1912000000000003
20
3.1892960968229467
10
-8.5140400000000014
20
2.618216096822934
0
LINE
5
103
100
AcDbEntity
8
0
100
AcDbLine
10
-10.183359999999999
20
2.2889360968229338
30
0
11
-10.046559999999999
21
2.1638960968229441
31
0
0
LWPOLYLINE
5
104
100
AcDbEntity
8
0
100
AcDbPolyline
90
36
70
1
43
0.0
10
-5.662600000000003
20
3.7152560968229409
10
-6.2282800000000069
20
3.8338160968229396
10
-6.8682399999999975
20
4.1515760968229465
10
-7.3996000000000004
20
4.6138160968229425
10
-7.8252400000000009
20
5.1638960968229419
10
-8.1495999999999977
20
5.7472160968229336
10
-8.3754399999999993
20
6.3071360968229406
10
-8.5088799999999996
20
6.789536096822939
10
-8.5518399999999968
20
7.0506560968229515
10
-8.5518399999999968
20
7.1372960968229382
10
-8.5518399999999968
20
7.250456096822937
10
-8.4607600000000023
20
7.5902960968229394
10
-8.2346799999999973
20
7.9002560968229396
10
-7.9477599999999979
20
8.0779760968229475
10
-7.7412400000000012
20
8.1346160968229331
10
-7.6722400000000022
20
8.1346160968229331
10
-3.5498800000000017
20
8.1346160968229331
10
-3.4450000000000056
20
8.1346160968229331
10
-3.1305999999999976
20
8.0682560968229389
10
-2.6364399999999986
20
7.8702560968229474
10
-2.2243599999999977
20
7.5433760968229446
10
-2.0519199999999995
20
7.2049760968229482
10
-2.0519199999999995
20
7.0915760968229424
10
-2.0519199999999995
20
7.0303760968229501
10
-2.0888800000000054
20
6.8462960968229503
10
-2.1995199999999984
20
6.5167760968229427
10
-2.388400000000003
20
6.1332560968229455
10
-2.5843599999999931
20
5.8228160968229403
10
-2.657199999999996
20
5.7251360968229381
10
-2.7907599999999952
20
5.5481360968229332
10
-3.1898800000000058
20
5.0129360968229353
10
-3.7783599999999993
20
4.3682960968229434
10
-4.5102399999999996
20
3.9008960968229367
10
-5.2328800000000051
20
3.7205360968229328
10
-5.4737199999999984
20
3.7205360968229328
10
-5.4737199999999984
20
3.7152560968229409
0
LWPOLYLINE
5
105
100
AcDbEntity
8
0
100
AcDbPolyline
90
51
70
1
43
0.0
10
-1.6325200000000053
20
0.8312960968229357
10
-1.4469999999999996
20
1.4327360968229377
10
-1.2192399999999961
20
2.0792960968229406
10
-0.97888000000000774
20
2.5331360968229433
10
-0.87088000000000187
20
2.6599760968229447
10
-0.78291999999999939
20
2.7654560968229447
10
-0.36375999999999431
20
3.1254560968229406
10
0.083600000000000133
20
3.2746160968229443
10
0.23323999999999989
20
3.2746160968229443
10
0.43640000000000212
20
3.2746160968229443
10
1.0457600000000009
20
2.9372960968229478
10
1.5959599999999994
20
2.1509360968229356
10
1.9456400000000005
20
1.2582560968229475
10
2.102480000000003
20
0.74261609682293916
10
2.1570800000000054
20
0.60005609682294314
10
2.1942800000000005
20
0.50105609682294294
10
2.3564000000000038
20
0.22121609682294291
10
2.5850000000000009
20
-0.087423903177059337
10
2.7731600000000025
20
-0.36810390317706138
10
2.8511599999999984
20
-0.5887839031770612
10
2.8511599999999984
20
-0.66294390317705321
10
2.8511599999999984
20
-0.72810390317705731
10
2.8029199999999879
20
-0.92526390317706464
10
2.6317999999999966
20
-1.237743903177053
10
2.2939999999999947
20
-1.4982639031770615
10
1.8837199999999963
20
-1.6075839031770653
10
1.7469199999999971
20
-1.6075839031770653
10
1.6147999999999949
20
-1.6075839031770653
10
1.2196400000000049
20
-1.5450639031770661
10
0.9403999999999999
20
-1.407783903177062
10
0.70856000000000341
20
-1.270383903177059
10
0.41959999999999864
20
-1.2085839031770627
10
0.32311999999999541
20
-1.2085839031770627
10
0.20732000000000061
20
-1.2085839031770627
10
-0.13972000000000451
20
-1.2721839031770619
10
-0.38968000000000247
20
-1.41354390317705
10
-0.66771999999999965
20
-1.5541839031770619
10
-1.0771599999999961
20
-1.6186239031770542
10
-1.2132400000000012
20
-1.6186239031770542
10
-1.2067600000000014
20
-1.6174239031770552
10
-1.3584399999999932
20
-1.6174239031770552
10
-1.8128800000000092
20
-1.5190239031770589
10
-2.1566800000000055
20
-1.2847839031770645
10
-2.3108800000000032
20
-1.0002639031770675
10
-2.3460399999999972
20
-0.81654390317705583
10
-2.3460399999999972
20
-0.75534390317705458
10
-2.3460399999999972
20
-0.6304239031770551
10
-2.2340800000000063
20
-0.25734390317706052
10
-1.9444000000000075
20
0.2752160968229414
10
-1.855840000000001
20
0.38321609682293839
10
-1.7797599999999982
20
0.47897609682294756
0
LWPOLYLINE
5
106
100
AcDbEntity
8
0
100
AcDbPolyline
90
71
70
1
43
0.0
10
-14.407839999999997
20
1.278416096822941
10
-7.8780400000000004
20
-2.0275839031770544
10
-7.8780400000000004
20
-0.24822390317705584
10
-8.2217199999999977
20
-0.090063903177064197
10
-9.2516799999999986
20
0.38321609682293839
10
-10.86304
20
1.1287760968229412
10
-12.35524
20
1.8286160968229483
10
-13.150000000000002
20
2.2093760968229419
10
-13.367560000000005
20
2.3214560968229496
10
-13.578520000000001
20
2.4295760968229367
10
-14.157159999999999
20
2.8592960968229431
10
-14.840199999999999
20
3.5382560968229448
10
-15.408519999999999
20
4.2479360968229418
10
-15.745239999999995
20
4.7192960968229336
10
-15.854559999999999
20
4.8774560968229519
10
-16.050519999999999
20
5.1574160968229332
10
-16.120239999999995
20
5.2537760968229463
10
-16.370200000000004
20
5.5115360968229332
10
-16.809039999999996
20
5.836376096822935
10
-17.347360000000002
20
6.0740960968229452
10
-17.812239999999996
20
6.1658960968229426
10
-17.967160000000003
20
6.1658960968229426
10
-18.047920000000001
20
6.1658960968229426
10
-18.289359999999999
20
6.1099760968229422
10
-18.430720000000001
20
6.0180560968229457
10
-18.447759999999999
20
6.0004160968229403
10
-18.533560000000001
20
5.9119760968229418
10
-18.68272
20
5.5388960968229473
10
-18.790000000000003
20
4.874816096822947
10
-18.812919999999998
20
4.1189360968229405
10
-18.801880000000001
20
3.5656160968229322
10
-18.795879999999997
20
3.3808160968229384
10
-18.780400000000007
20
2.6476160968229401
10
-18.77908
20
2.5850960968229408
10
-18.825879999999998
20
2.3956160968229416
10
-18.960039999999999
20
2.1912560968229404
10
-19.163679999999999
20
2.0519360968229443
10
-19.35256
20
1.9992560968229436
10
-19.41508
20
1.9979360968229367
10
-19.478920000000002
20
1.9966160968229387
10
-19.670439999999999
20
2.0460560968229395
10
-19.879839999999998
20
2.1853760968229445
10
-20.024560000000005
20
2.3938160968229387
10
-20.079160000000002
20
2.5843760968229379
10
-20.080360000000002
20
2.6476160968229401
10
-20.086360000000006
20
2.9087360968229348
10
-20.096080000000004
20
2.8838960968229443
10
-20.140360000000005
20
2.7289760968229437
10
-20.140360000000005
20
2.6690960968229405
10
-20.140360000000005
20
1.4177360968229371
10
-20.140360000000005
20
1.3500560968229449
10
-20.116840000000003
20
1.1462960968229388
10
-20.028400000000005
20
0.89561609682294674
10
-19.847439999999999
20
0.71141609682293905
10
-19.622680000000003
20
0.63977609682294401
10
-19.547200000000004
20
0.63977609682294401
10
-19.378720000000001
20
0.63977609682294401
10
-18.872679999999999
20
0.79541609682294756
10
-18.254200000000004
20
1.0714160968229438
10
-18.131200000000003
20
1.1318960968229421
10
-17.988039999999998
20
1.2022160968229481
10
-17.288679999999999
20
1.5096560968229424
10
-16.667679999999997
20
1.6762160968229358
10
-16.460080000000005
20
1.6762160968229358
10
-16.36684
20
1.6800560968229397
10
-16.290760000000002
20
1.6841360968229326
10
-16.059519999999999
20
1.6872560968229424
10
-15.627400000000005
20
1.6547360968229443
10
-15.077920000000001
20
1.5349760968229467
10
-14.577160000000003
20
1.3572560968229477
10
-14.417679999999999
20
1.2823760968229438
0
LINE
5
107
100
AcDbEntity
8
0
100
AcDbLine
10
-11.335719999999998
20
4.8976160968229454
30
0
11
-11.335719999999998
21
4.6867760968229444
31
0
0
LINE
5
108
100
AcDbEntity
8
0
100
AcDbLine
10
-10.965280000000003
20
3.3259760968229379
30
0
11
-10.556439999999998
21
2.7016160968229386
31
0
0
LINE
5
109
100
AcDbEntity
8
0
100
AcDbLine
10
-12.790000000000001
20
3.4666160968229409
30
0
11
-12.954160000000002
21
3.5512160968229356
31
0
0
LWPOLYLINE
5
110
100
AcDbEntity
8
0
100
AcDbPolyline
90
72
70
1
43
0.0
10
6.4149199999999897
20
-3.2311839031770617
10
6.4149199999999897
20
-0.15438390317705747
10
6.3094399999999986
20
-0.21618390317706265
10
5.9944399999999955
20
-0.40326390317706434
10
5.6728400000000025
20
-0.60306390317705882
10
5.4364399999999993
20
-0.76902390317705716
10
5.2731199999999969
20
-0.91626390317705897
10
5.1695599999999988
20
-1.058703903177056
10
5.1110000000000024
20
-1.2124239031770576
10
5.0862799999999933
20
-1.3914639031770635
10
5.0809999999999924
20
-1.5567039031770589
10
5.0809999999999924
20
-1.6120239031770554
10
5.0809999999999924
20
-2.4421839031770616
10
5.0809999999999924
20
-2.5847439031770492
10
4.9521199999999901
20
-3.0132639031770658
10
4.5939199999999971
20
-3.5620239031770584
10
4.0484000000000044
20
-4.071783903177062
10
3.358279999999997
20
-4.5262239031770601
10
2.5659199999999984
20
-4.9090239031770544
10
1.713080000000001
20
-5.2025439031770571
10
0.84211999999999376
20
-5.3907039031770587
10
0.20732000000000061
20
-5.4579039031770549
10
-0.0042399999999944565
20
-5.4579039031770549
10
-0.20092000000000576
20
-5.4579039031770549
10
-0.79072000000000608
20
-5.3961039031770586
10
-1.6351600000000013
20
-5.2209039031770565
10
-2.4887200000000012
20
-4.9435839031770623
10
-3.2999200000000037
20
-4.5781839031770577
10
-4.0192000000000014
20
-4.1375439031770611
10
-4.5954399999999982
20
-3.6342639031770663
10
-4.9775199999999984
20
-3.0809439031770491
10
-5.1162399999999995
20
-2.6375439031770576
10
-5.1162399999999995
20
-2.4904239031770543
10
-5.1162399999999995
20
-2.3452239031770534
10
-5.1110800000000065
20
-1.9102239031770549
10
-5.096680000000001
20
-1.6174239031770552
10
-5.0915199999999992
20
-1.5775839031770642
10
-5.0922399999999932
20
-1.5282639031770626
10
-5.0960800000000059
20
-1.3817439031770549
10
-5.1162399999999995
20
-1.2267039031770641
10
-5.170359999999997
20
-1.0938639031770678
10
-5.275719999999998
20
-0.96306390317706358
10
-5.4528400000000019
20
-0.8159439031770519
10
-5.7179199999999994
20
-0.633543903177056
10
-6.0908800000000038
20
-0.39726390317706056
10
-6.4645600000000023
20
-0.16494390317705027
10
-6.5888800000000023
20
-0.088023903177054663
10
-6.5803599999999971
20
-3.2280639031770608
10
-6.5803599999999971
20
-3.4278639031770641
10
-6.3630399999999963
20
-4.0294239031770562
10
-5.7250000000000032
20
-5.0340639031770618
10
-4.6865200000000016
20
-6.0775839031770662
10
-3.644919999999999
20
-6.8093439031770586
10
-3.2691999999999997
20
-6.9982239031770543
10
-3.0185199999999988
20
-7.1245839031770597
10
-2.2425999999999982
20
-7.4572239031770593
10
-1.2295599999999909
20
-7.81986390317706
10
-0.37155999999999212
20
-8.0587839031770603
10
0.049759999999995155
20
-8.1447039031770565
10
0.19039999999999813
20
-8.1447039031770565
10
0.32059999999999844
20
-8.1447039031770565
10
0.71239999999999837
20
-8.0437839031770597
10
1.4241199999999963
20
-7.7847039031770615
10
2.2294400000000034
20
-7.4279439031770567
10
2.8349600000000077
20
-7.1362239031770525
10
3.0347599999999932
20
-7.0359039031770543
10
3.1037600000000101
20
-7.0013439031770552
10
3.4781599999999937
20
-6.8127039031770575
10
4.5197599999999962
20
-6.0809439031770562
10
5.5582400000000067
20
-5.0365839031770587
10
6.1969999999999938
20
-4.0320639031770611
10
6.4149199999999897
20
-3.431103903177064
0
LINE
5
111
100
AcDbEntity
8
0
100
AcDbLine
10
-11.335719999999998
20
5.2777760968229437
30
0
11
-11.335719999999998
21
4.8976160968229454
31
0
0
LINE
5
112
100
AcDbEntity
8
0
100
AcDbLine
10
-13.398160000000001
20
3.8976560968229457
30
0
11
-13.95424
21
4.4724560968229454
31
0
0
LINE
5
113
100
AcDbEntity
8
0
100
AcDbLine
10
-11.237440000000001
20
4.0525760968229374
30
0
11
-10.965280000000003
21
3.3259760968229379
31
0
0
LWPOLYLINE
5
114
100
AcDbEntity
8
0
100
AcDbPolyline
90
6
70
1
43
0.0
10
-7.4437600000000002
20
0.98297609682294529
10
-7.5590799999999989
20
1.0362560968229497
10
-6.5942799999999977
20
1.0362560968229497
10
-6.5942799999999977
20
0.59429609682294626
10
-6.6318399999999986
20
0.61241609682293885
10
-6.9600399999999993
20
0.76289609682294057
0
LINE
5
115
100
AcDbEntity
8
0
100
AcDbLine
10
-14.430760000000003
20
5.0785760968229443
30
0
11
-14.710719999999997
21
5.4718160968229412
31
0
0
LINE
5
116
100
AcDbEntity
8
0
100
AcDbLine
10
-10.904679999999997
20
2.5642160968229355
30
0
11
-11.685879999999999
21
2.931416096822943
31
0
0
LINE
5
117
100
AcDbEntity
8
0
100
AcDbLine
10
-12.333760000000005
20
3.2413760968229433
30
0
11
-12.677560000000001
21
3.4087760968229475
31
0
0
LINE
5
118
100
AcDbEntity
8
0
100
AcDbLine
10
-12.677560000000001
20
3.4087760968229475
30
0
11
-12.790000000000001
21
3.4666160968229409
31
0
0
LINE
5
119
100
AcDbEntity
8
0
100
AcDbLine
10
-12.954160000000002
20
3.5512160968229356
30
0
11
-13.398160000000001
21
3.8976560968229457
31
0
0
LINE
5
120
100
AcDbEntity
8
0
100
AcDbLine
10
-11.335719999999998
20
4.6867760968229444
30
0
11
-11.237440000000001
21
4.0525760968229374
31
0
0
LINE
5
121
100
AcDbEntity
8
0
100
AcDbLine
10
-13.95424
20
4.4724560968229454
30
0
11
-14.430760000000003
21
5.0785760968229443
31
0
0
LINE
5
122
100
AcDbEntity
8
0
100
AcDbLine
10
-11.685879999999999
20
2.931416096822943
30
0
11
-12.333760000000005
21
3.2413760968229433
31
0
0
LINE
5
123
100
AcDbEntity
8
0
100
AcDbLine
10
-14.766760000000005
20
-0.017103903177062285
30
0
11
-14.173600000000002
21
-0.31794390317705784
31
0
0
LWPOLYLINE
5
124
100
AcDbEntity
8
0
100
AcDbPolyline
90
76
70
1
43
0.0
10
7.7164400000000057
20
-0.52422390317706102
10
7.7164400000000057
20
-2.3315439031770597
10
14.827160000000001
20
1.2758960968229351
10
14.845279999999994
20
1.2848960968229408
10
15.004160000000006
20
1.3598960968229437
10
15.504799999999996
20
1.5368960968229486
10
16.054999999999996
20
1.6567760968229364
10
16.486640000000005
20
1.6898960968229384
10
16.717759999999998
20
1.6867760968229464
10
16.794559999999993
20
1.6828160968229435
10
16.888280000000002
20
1.6789760968229397
10
17.094560000000005
20
1.6789760968229397
10
17.714480000000005
20
1.5115760968229444
10
18.414919999999992
20
1.204976096822943
10
18.558800000000002
20
1.134656096822946
10
18.683240000000005
20
1.0747760968229427
10
19.302319999999995
20
0.79805609682294354
10
19.806320000000003
20
0.64181609682293606
10
19.974919999999987
20
0.64181609682293606
10
20.049799999999998
20
0.64181609682293606
10
20.274319999999992
20
0.71405609682294391
10
20.455280000000002
20
0.89825609682294272
10
20.54455999999999
20
1.1495360968229387
10
20.568560000000005
20
1.352816096822931
10
20.568560000000005
20
1.420376096822942
10
20.568560000000005
20
2.6711360968229414
10
20.568560000000005
20
2.7251360968229399
10
20.52308
20
2.8865360968229403
10
20.513960000000004
20
2.9112560968229495
10
20.50808
20
2.6489360968229381
10
20.506159999999998
20
2.5858160968229349
10
20.450839999999999
20
2.3951360968229456
10
20.306240000000003
20
2.1868160968229415
10
20.096599999999995
20
2.0473760968229464
10
19.905799999999999
20
1.9979360968229367
10
19.84328
20
1.9992560968229436
10
19.780279999999994
20
2.0010560968229467
10
19.591399999999989
20
2.0539760968229364
10
19.387640000000001
20
2.1925760968229473
10
19.252999999999993
20
2.3976560968229426
10
19.206560000000003
20
2.5864160968229388
10
19.207999999999991
20
2.6489360968229381
10
19.223599999999998
20
3.3818960968229383
10
19.228760000000008
20
3.5669360968229391
10
19.239799999999995
20
4.1202560968229474
10
19.216399999999993
20
4.8761360968229361
10
19.109000000000002
20
5.5402160968229364
10
18.959960000000006
20
5.9132960968229398
10
18.873919999999995
20
6.0017360968229383
10
18.856399999999997
20
6.0200960968229467
10
18.715160000000001
20
6.1117760968229451
10
18.474319999999988
20
6.1670960968229416
10
18.394160000000003
20
6.1670960968229416
10
18.397399999999994
20
6.1645760968229446
10
18.241760000000006
20
6.1645760968229446
10
17.777000000000005
20
6.0727760968229383
10
17.239159999999995
20
5.8350560968229459
10
16.801160000000003
20
5.5102160968229441
10
16.551560000000002
20
5.2517360968229365
10
16.482079999999996
20
5.1560960968229441
10
16.286119999999997
20
4.8767360968229312
10
16.177280000000007
20
4.7179760968229445
10
15.842120000000001
20
4.2466160968229349
10
15.274279999999997
20
3.5382560968229448
10
14.590159999999994
20
2.859896096822947
10
14.009480000000007
20
2.4289760968229417
10
13.798399999999999
20
2.3201360968229339
10
13.67348
20
2.2558160968229406
10
13.293919999999996
20
2.0700560968229458
10
12.575119999999995
20
1.7263760968229482
10
11.713160000000002
20
1.3213760968229418
10
10.777639999999995
20
0.88529609682294308
10
9.8394800000000018
20
0.4516160968229424
10
8.9696000000000033
20
0.050576096822947669
10
8.2385599999999961
20
-0.28470390317705679
10
7.8466399999999972
20
-0.4643439031770577
0
LINE
5
125
100
AcDbEntity
8
0
100
AcDbLine
10
-10.26136
20
2.2633760968229404
30
0
11
-10.904679999999997
21
2.5642160968229355
31
0
0
LINE
5
126
100
AcDbEntity
8
0
100
AcDbLine
10
-14.173600000000002
20
-0.31794390317705784
30
0
11
-13.299880000000003
21
-0.76062390317705542
31
0
0
LINE
5
127
100
AcDbEntity
8
0
100
AcDbLine
10
20.164279999999994
20
-0.67074390317705102
30
0
11
20.740400000000001
21
-0.51774390317705232
31
0
0
LINE
5
128
100
AcDbEntity
8
0
100
AcDbLine
10
-15.016
20
5.9106560968229438
30
0
11
-15.125439999999999
21
6.0622160968229366
31
0
0
LINE
5
129
100
AcDbEntity
8
0
100
AcDbLine
10
-20.328520000000001
20
-0.51834390317705625
30
0
11
-19.753720000000005
21
-0.67134390317705495
31
0
0
LINE
5
130
100
AcDbEntity
8
0
100
AcDbLine
10
18.943640000000006
20
-0.46758390317705761
30
0
11
19.715119999999999
21
-0.67074390317705102
31
0
0
LINE
5
131
100
AcDbEntity
8
0
100
AcDbLine
10
-19.30444
20
-0.67134390317705495
30
0
11
-18.531760000000002
21
-0.46818390317706154
31
0
0
LWPOLYLINE
5
132
100
AcDbEntity
8
0
100
AcDbPolyline
90
82
70
1
43
0.0
10
15.511279999999996
20
-8.8217439031770617
10
15.306919999999995
20
-8.8217439031770617
10
15.17611999999999
20
-8.8217439031770617
10
14.784799999999995
20
-8.8049439031770618
10
14.415559999999996
20
-8.7540639031770606
10
14.131760000000002
20
-8.6635839031770612
10
13.927999999999995
20
-8.567223903177057
10
13.862959999999999
20
-8.5320639031770575
10
13.542559999999996
20
-8.3757039031770564
10
13.445599999999988
20
-8.3340639031770571
10
13.159159999999998
20
-8.2019439031770602
10
12.476119999999995
20
-7.8823839031770593
10
11.580319999999997
20
-7.4590239031770578
10
10.560799999999999
20
-6.975423903177056
10
9.5040799999999983
20
-6.4722639031770601
10
8.4982400000000027
20
-5.9923839031770587
10
7.6318400000000022
20
-5.5782639031770653
10
7.1519600000000008
20
-5.3490639031770559
10
6.9924800000000022
20
-5.272863903177063
10
6.9995599999999971
20
-5.2807839031770598
10
6.9455600000000075
20
-5.3634639031770615
10
6.3004400000000018
20
-6.195423903177053
10
6.2249600000000029
20
-6.2776239031770587
10
12.504799999999998
20
-9.2983839031770579
10
12.702799999999998
20
-9.3927039031770576
10
13.261279999999999
20
-9.7513839031770608
10
13.995079999999993
20
-10.44678390317706
10
14.593999999999998
20
-11.432463903177057
10
14.90264
20
-12.42078390317706
10
14.944999999999997
20
-12.757863903177057
10
14.95532
20
-12.840063903177059
10
15.097279999999992
20
-13.085463903177054
10
15.449479999999991
20
-13.484583903177061
10
15.936439999999996
20
-13.821063903177059
10
16.355119999999996
20
-13.963743903177059
10
16.495160000000006
20
-13.963743903177059
10
16.584319999999998
20
-13.963743903177059
10
16.853840000000002
20
-13.907703903177055
10
17.192239999999998
20
-13.750743903177064
10
17.456600000000002
20
-13.507863903177061
10
17.582239999999995
20
-13.274943903177054
10
17.595919999999989
20
-13.192863903177056
10
17.629159999999999
20
-12.994863903177055
10
17.766560000000002
20
-12.287943903177059
10
18.015319999999992
20
-11.061423903177054
10
18.243079999999996
20
-9.9604239031770589
10
18.34796
20
-9.4637439031770612
10
18.35444
20
-9.43374390317706
10
18.3674
20
-9.3719439031770602
10
18.455960000000008
20
-9.1967439031770581
10
18.634999999999994
20
-9.0235839031770624
10
18.865400000000005
20
-8.9298639031770577
10
19.061479999999992
20
-8.919423903177055
10
19.123999999999992
20
-8.9323839031770582
10
19.185799999999997
20
-8.9453439031770579
10
19.361000000000001
20
-9.0347439031770591
10
19.534759999999995
20
-9.2143839031770582
10
19.628479999999996
20
-9.4449039031770621
10
19.638919999999999
20
-9.6414639031770566
10
19.626560000000001
20
-9.7032639031770564
10
19.625959999999999
20
-9.7045839031770598
10
19.599319999999995
20
-9.8281839031770613
10
19.545079999999999
20
-10.084023903177059
10
19.531399999999998
20
-10.151223903177055
10
19.698079999999997
20
-10.071783903177058
10
20.19164
20
-9.8178639031770576
10
20.543959999999998
20
-9.5821839031770573
10
20.683280000000003
20
-9.3738639031770568
10
20.708599999999997
20
-9.1877439031770614
10
20.708599999999997
20
-9.1257039031770582
10
20.708599999999997
20
-9.0321039031770578
10
20.521759999999993
20
-8.7520239031770544
10
20.04511999999999
20
-8.3992239031770577
10
19.404560000000004
20
-8.1361839031770611
10
18.895399999999995
20
-8.033343903177057
10
18.72608
20
-8.033343903177057
10
18.477439999999998
20
-8.033343903177057
10
17.732599999999998
20
-8.1642639031770603
10
17.019080000000006
20
-8.3965839031770617
10
16.883119999999991
20
-8.4474639031770593
10
16.759999999999994
20
-8.4930639031770596
10
16.125320000000002
20
-8.703183903177063
0
LINE
5
133
100
AcDbEntity
8
0
100
AcDbLine
10
18.888919999999995
20
-13.332903903177055
30
0
11
19.005439999999993
21
-12.719583903177059
31
0
0
LWPOLYLINE
5
134
100
AcDbEntity
8
0
100
AcDbPolyline
90
83
70
1
43
0.0
10
-20.304400000000005
20
-9.0157839031770628
10
-20.304400000000005
20
-9.1096239031770576
10
-20.304400000000005
20
-9.1714239031770575
10
-20.279679999999999
20
-9.35754390317706
10
-20.139759999999999
20
-9.5658639031770587
10
-19.788279999999997
20
-9.8022639031770566
10
-19.294719999999998
20
-10.055583903177059
10
-19.127439999999996
20
-10.135623903177056
10
-19.142439999999997
20
-10.065903903177059
10
-19.174239999999998
20
-9.9136239031770579
10
-19.206759999999999
20
-9.7591839031770622
10
-19.221039999999999
20
-9.6877839031770563
10
-19.221039999999999
20
-9.6857439031770589
10
-19.234719999999999
20
-9.6239439031770591
10
-19.224400000000003
20
-9.4272639031770566
10
-19.130560000000003
20
-9.1967439031770581
10
-18.957400000000003
20
-9.0177039031770612
10
-18.7822
20
-8.9285439031770597
10
-18.71968
20
-8.9155839031770601
10
-18.657879999999999
20
-8.9019039031770575
10
-18.46144
20
-8.9122239031770576
10
-18.230200000000004
20
-9.0053439031770566
10
-18.051160000000003
20
-9.1792239031770571
10
-17.962000000000003
20
-9.3544239031770573
10
-17.948919999999998
20
-9.4162239031770589
10
-17.942439999999998
20
-9.4461039031770575
10
-17.838160000000002
20
-9.9429039031770561
10
-17.609679999999997
20
-11.043783903177058
10
-17.361759999999997
20
-12.270423903177058
10
-17.223759999999999
20
-12.976743903177059
10
-17.190520000000003
20
-13.175223903177059
10
-17.177560000000003
20
-13.257423903177052
10
-17.052520000000001
20
-13.490343903177063
10
-16.787560000000003
20
-13.734543903177055
10
-16.448919999999998
20
-13.891383903177061
10
-16.179400000000001
20
-13.947423903177057
10
-16.089519999999997
20
-13.947423903177057
10
-15.950200000000001
20
-13.947423903177057
10
-15.531759999999998
20
-13.804863903177061
10
-15.044079999999999
20
-13.468263903177053
10
-14.692360000000003
20
-13.069263903177056
10
-14.54992
20
-12.824343903177056
10
-14.539359999999999
20
-12.742383903177057
10
-14.497720000000001
20
-12.40578390317706
10
-14.188599999999997
20
-11.418783903177058
10
-13.589560000000002
20
-10.433703903177056
10
-12.855160000000005
20
-9.7377039031770618
10
-12.296560000000001
20
-9.3771039031770584
10
-12.09808
20
-9.2820639031770611
10
-11.125360000000002
20
-8.8217439031770617
10
-6.1826800000000057
20
-6.4911039031770557
10
-6.2653599999999985
20
-6.408423903177054
10
-6.9782799999999998
20
-5.560023903177056
10
-7.0375599999999991
20
-5.4747039031770584
10
-7.221039999999995
20
-5.5620639031770658
10
-7.7712399999999979
20
-5.8251039031770624
10
-8.6429200000000037
20
-6.2410239031770587
10
-9.588160000000002
20
-6.691623903177053
10
-10.542040000000002
20
-7.145463903177065
10
-11.43988
20
-7.5703839031770581
10
-12.214600000000003
20
-7.9350639031770598
10
-12.80308
20
-8.2090239031770587
10
-13.05376
20
-8.3243439031770592
10
-13.13836
20
-8.3602239031770598
10
-13.45804
20
-8.5164639031770584
10
-13.524520000000003
20
-8.5516239031770525
10
-13.72828
20
-8.6478639031770577
10
-14.013400000000004
20
-8.7377439031770585
10
-14.381920000000001
20
-8.7892239031770547
10
-14.772519999999998
20
-8.8055439031770621
10
-14.902719999999999
20
-8.8055439031770621
10
-15.107920000000002
20
-8.8055439031770621
10
-15.721719999999999
20
-8.6877039031770629
10
-16.355920000000001
20
-8.4773439031770579
10
-16.478920000000002
20
-8.4310239031770564
10
-16.615600000000004
20
-8.3803839031770622
10
-17.329839999999997
20
-8.1479439031770582
10
-18.073840000000001
20
-8.0177439031770561
10
-18.321999999999999
20
-8.0177439031770561
10
-18.49192
20
-8.0177439031770561
10
-19.001080000000002
20
-8.1205839031770601
10
-19.641760000000005
20
-8.3836239031770567
10
-20.118279999999999
20
-8.7365439031770631
0
LINE
5
135
100
AcDbEntity
8
0
100
AcDbLine
10
-21.589600000000004
20
-8.883543903177058
30
0
11
-21.589600000000004
21
-9.1317039031770619
31
0
0
LINE
5
136
100
AcDbEntity
8
0
100
AcDbLine
10
15.450080000000003
20
-15.033423903177056
30
0
11
16.232119999999998
21
-15.269703903177057
31
0
0
LINE
5
137
100
AcDbEntity
8
0
100
AcDbLine
10
-15.023199999999999
20
-7.5235839031770624
30
0
11
-15.420400000000003
21
-7.436343903177054
31
0
0
LINE
5
138
100
AcDbEntity
8
0
100
AcDbLine
10
-21.000400000000006
20
-10.545783903177064
30
0
11
-20.304400000000005
21
-11.014383903177061
31
0
0
LINE
5
139
100
AcDbEntity
8
0
100
AcDbLine
10
-19.386400000000005
20
-6.9077439031770549
30
0
11
-20.451520000000002
21
-7.3876239031770563
31
0
0
LINE
5
140
100
AcDbEntity
8
0
100
AcDbLine
10
18.842719999999996
20
-13.61346390317706
30
0
11
18.876560000000008
21
-13.410903903177056
31
0
0
LINE
5
141
100
AcDbEntity
8
0
100
AcDbLine
10
-21.589600000000004
20
-9.3373839031770611
30
0
11
-21.437919999999998
21
-9.9545439031770577
31
0
0
LINE
5
142
100
AcDbEntity
8
0
100
AcDbLine
10
-19.610440000000001
20
-11.361543903177061
30
0
11
-19.376080000000002
21
-11.471583903177063
31
0
0
LINE
5
143
100
AcDbEntity
8
0
100
AcDbLine
10
16.733959999999996
20
0.37229609682293968
30
0
11
16.889600000000002
21
0.36761609682294277
31
0
0
LINE
5
144
100
AcDbEntity
8
0
100
AcDbLine
10
19.200080000000003
20
-11.750703903177055
30
0
11
19.795159999999996
21
-11.468943903177063
31
0
0
LINE
5
145
100
AcDbEntity
8
0
100
AcDbLine
10
21.419599999999992
20
-10.542423903177056
30
0
11
21.856400000000001
21
-9.9514239031770568
31
0
0
LINE
5
146
100
AcDbEntity
8
0
100
AcDbLine
10
21.338840000000001
20
-0.090063903177064197
30
0
11
21.727399999999992
21
0.5669360968229411
31
0
0
LINE
5
147
100
AcDbEntity
8
0
100
AcDbLine
10
15.847999999999997
20
0.27125609682294743
30
0
11
16.212440000000001
21
0.35465609682294313
31
0
0
LINE
5
148
100
AcDbEntity
8
0
100
AcDbLine
10
-14.803720000000002
20
-7.5235839031770624
30
0
11
-14.890360000000003
21
-7.5235839031770624
31
0
0
LINE
5
149
100
AcDbEntity
8
0
100
AcDbLine
10
-15.906040000000001
20
-7.2711039031770586
30
0
11
-16.010920000000002
21
-7.2318639031770626
31
0
0
LINE
5
150
100
AcDbEntity
8
0
100
AcDbLine
10
-20.304400000000005
20
-11.014383903177061
30
0
11
-19.610440000000001
21
-11.361543903177061
31
0
0
LINE
5
151
100
AcDbEntity
8
0
100
AcDbLine
10
20.028919999999992
20
-11.358903903177055
30
0
11
20.722999999999992
21
-11.011863903177055
31
0
0
LINE
5
152
100
AcDbEntity
8
0
100
AcDbLine
10
21.727399999999992
20
0.5669360968229411
30
0
11
21.866119999999995
21
1.1977760968229403
31
0
0
LINE
5
153
100
AcDbEntity
8
0
100
AcDbLine
10
17.885599999999997
20
0.0058160968229439836
30
0
11
17.989760000000008
21
-0.045063903177062492
31
0
0
LINE
5
154
100
AcDbEntity
8
0
100
AcDbLine
10
20.722999999999992
20
-11.011863903177055
30
0
11
21.419599999999992
21
-10.542423903177056
31
0
0
LINE
5
155
100
AcDbEntity
8
0
100
AcDbLine
10
15.394160000000003
20
0.094256096822942503
30
0
11
15.400640000000003
21
0.096776096822948354
31
0
0
LINE
5
156
100
AcDbEntity
8
0
100
AcDbLine
10
19.200080000000003
20
-11.750703903177055
30
0
11
19.142840000000007
21
-11.778183903177059
31
0
0
LINE
5
157
100
AcDbEntity
8
0
100
AcDbLine
10
16.493119999999994
20
-15.269703903177057
30
0
11
16.686439999999997
21
-15.269703903177057
31
0
0
LINE
5
158
100
AcDbEntity
8
0
100
AcDbLine
10
17.993719999999993
20
-14.776863903177059
30
0
11
18.5654
21
-14.192223903177052
31
0
0
LINE
5
159
100
AcDbEntity
8
0
100
AcDbLine
10
22.008799999999997
20
-9.12978390317706
30
0
11
22.008799999999997
21
-8.8817439031770604
31
0
0
LINE
5
160
100
AcDbEntity
8
0
100
AcDbLine
10
-21.589600000000004
20
-9.1317039031770619
30
0
11
-21.589600000000004
21
-9.3373839031770611
31
0
0
LINE
5
161
100
AcDbEntity
8
0
100
AcDbLine
10
16.212440000000001
20
0.35465609682294313
30
0
11
16.504160000000002
21
0.37805609682294544
31
0
0
LINE
5
162
100
AcDbEntity
8
0
100
AcDbLine
10
16.889600000000002
20
0.36761609682294277
30
0
11
17.011279999999999
21
0.36761609682294277
31
0
0
LINE
5
163
100
AcDbEntity
8
0
100
AcDbLine
10
16.686439999999997
20
-15.269703903177057
30
0
11
17.267840000000007
21
-15.142743903177056
31
0
0
LINE
5
164
100
AcDbEntity
8
0
100
AcDbLine
10
-21.437919999999998
20
-9.9545439031770577
30
0
11
-21.000400000000006
21
-10.545783903177064
31
0
0
LINE
5
165
100
AcDbEntity
8
0
100
AcDbLine
10
21.856400000000001
20
-9.9514239031770568
30
0
11
22.008799999999997
21
-9.3347439031770563
31
0
0
LINE
5
166
100
AcDbEntity
8
0
100
AcDbLine
10
17.989760000000008
20
-0.045063903177062492
30
0
11
18.139639999999996
21
-0.11802390317705552
31
0
0
LINE
5
167
100
AcDbEntity
8
0
100
AcDbLine
10
15.122599999999997
20
-0.043743903177055621
30
0
11
15.394160000000003
21
0.094256096822942503
31
0
0
LINE
5
168
100
AcDbEntity
8
0
100
AcDbLine
10
19.164919999999992
20
-11.921343903177055
30
0
11
19.200080000000003
21
-11.750703903177055
31
0
0
LINE
5
169
100
AcDbEntity
8
0
100
AcDbLine
10
18.139639999999996
20
-0.11802390317705552
30
0
11
18.943640000000006
21
-0.46758390317705761
31
0
0
LINE
5
170
100
AcDbEntity
8
0
100
AcDbLine
10
17.011279999999999
20
0.36761609682294277
30
0
11
17.37848
21
0.23741609682294246
31
0
0
LINE
5
171
100
AcDbEntity
8
0
100
AcDbLine
10
17.267840000000007
20
-15.142743903177056
30
0
11
17.993719999999993
21
-14.776863903177059
31
0
0
LINE
5
172
100
AcDbEntity
8
0
100
AcDbLine
10
19.795159999999996
20
-11.468943903177063
30
0
11
20.028919999999992
21
-11.358903903177055
31
0
0
LINE
5
173
100
AcDbEntity
8
0
100
AcDbLine
10
21.866119999999995
20
1.1977760968229403
30
0
11
21.866119999999995
21
1.4081360968229364
31
0
0
LINE
5
174
100
AcDbEntity
8
0
100
AcDbLine
10
16.676600000000001
20
0.37481609682293665
30
0
11
16.733959999999996
21
0.37229609682293968
31
0
0
LINE
5
175
100
AcDbEntity
8
0
100
AcDbLine
10
18.5654
20
-14.192223903177052
30
0
11
18.842719999999996
21
-13.61346390317706
31
0
0
LINE
5
176
100
AcDbEntity
8
0
100
AcDbLine
10
15.508759999999999
20
0.14765609682294595
30
0
11
15.847999999999997
21
0.27125609682294743
31
0
0
LINE
5
177
100
AcDbEntity
8
0
100
AcDbLine
10
17.37848
20
0.23741609682294246
30
0
11
17.885599999999997
21
0.0058160968229439836
31
0
0
LINE
5
178
100
AcDbEntity
8
0
100
AcDbLine
10
19.142840000000007
20
-11.778183903177059
30
0
11
19.200080000000003
21
-11.750703903177055
31
0
0
LINE
5
179
100
AcDbEntity
8
0
100
AcDbLine
10
20.740400000000001
20
-0.51774390317705232
30
0
11
21.338840000000001
21
-0.090063903177064197
31
0
0
LINE
5
180
100
AcDbEntity
8
0
100
AcDbLine
10
-15.802600000000002
20
0.35345609682294415
30
0
11
-15.43792
21
0.2706560968229435
31
0
0
LINE
5
181
100
AcDbEntity
8
0
100
AcDbLine
10
-17.475759999999998
20
0.0043760968229381025
30
0
11
-16.969239999999996
21
0.23609609682294447
31
0
0
LINE
5
182
100
AcDbEntity
8
0
100
AcDbLine
10
-13.630600000000001
20
-7.1817039031770591
30
0
11
-14.064159999999999
21
-7.3920639031770641
31
0
0
LINE
5
183
100
AcDbEntity
8
0
100
AcDbLine
10
10.997599999999991
20
3.887216096822943
30
0
11
11.14411999999999
21
4.7615360968229403
31
0
0
LINE
5
184
100
AcDbEntity
8
0
100
AcDbLine
10
9.5112800000000011
20
1.775936096822939
30
0
11
10.024279999999994
21
2.2322960968229482
31
0
0
LINE
5
185
100
AcDbEntity
8
0
100
AcDbLine
10
10.603159999999995
20
2.9634560968229451
30
0
11
10.997599999999991
21
3.887216096822943
31
0
0
LINE
5
186
100
AcDbEntity
8
0
100
AcDbLine
10
0.89408000000000021
20
-9.4122639031770596
30
0
11
1.7236400000000027
21
-9.1199439031770559
31
0
0
LINE
5
187
100
AcDbEntity
8
0
100
AcDbLine
10
13.364119999999994
20
3.5512160968229356
30
0
11
13.200080000000007
21
3.4666160968229409
31
0
0
LINE
5
188
100
AcDbEntity
8
0
100
AcDbLine
10
-13.447000000000003
20
13.142456096822945
30
0
11
-13.232200000000002
21
12.00761609682294
31
0
0
LINE
5
189
100
AcDbEntity
8
0
100
AcDbLine
10
3.4025600000000047
20
-8.3268639031770597
30
0
11
3.6519199999999987
21
-8.2019439031770602
31
0
0
LWPOLYLINE
5
190
100
AcDbEntity
8
0
100
AcDbPolyline
90
36
70
1
43
0.0
10
7.2261200000000017
20
4.6189760968229443
10
6.6955999999999918
20
4.1567360968229394
10
6.0543199999999899
20
3.8390960968229404
10
5.4886400000000037
20
3.7205360968229328
10
5.3004800000000021
20
3.7205360968229328
10
5.2991600000000041
20
3.7250960968229396
10
5.057599999999999
20
3.7250960968229396
10
4.3336400000000044
20
3.9054560968229435
10
3.6030800000000021
20
4.3729760968229403
10
3.0159199999999977
20
5.018096096822946
10
2.6168000000000049
20
5.552576096822941
10
2.4832400000000052
20
5.7295760968229459
10
2.4090800000000043
20
5.8272560968229392
10
2.2138399999999989
20
6.1384160968229384
10
2.0249600000000032
20
6.5226560968229386
10
1.9135999999999984
20
6.8520560968229383
10
1.8772400000000053
20
7.035656096822942
10
1.8772400000000053
20
7.0962560968229482
10
1.8772400000000053
20
7.2094160968229382
10
2.0490799999999996
20
7.5486560968229455
10
2.4612799999999999
20
7.8748160968229453
10
2.9559199999999954
20
8.0728160968229368
10
3.2704400000000025
20
8.1390560968229497
10
3.3759200000000025
20
8.1390560968229497
10
7.4982800000000029
20
8.1390560968229497
10
7.5665599999999991
20
8.1390560968229497
10
7.7730800000000002
20
8.0825360968229365
10
8.0601199999999942
20
7.9033760968229405
10
8.2867999999999977
20
7.5936560968229383
10
8.3784799999999962
20
7.2551360968229339
10
8.3784799999999962
20
7.141736096822946
10
8.3784799999999962
20
7.0550960968229415
10
8.3349199999999914
20
6.7940960968229369
10
8.202080000000004
20
6.3118160968229375
10
7.9753999999999916
20
5.7517760968229403
10
7.6520000000000046
20
5.1684560968229398
0
LINE
5
191
100
AcDbEntity
8
0
100
AcDbLine
10
-16.478920000000002
20
0.36641609682294379
30
0
11
-16.323400000000003
21
0.37097609682294169
31
0
0
LINE
5
192
100
AcDbEntity
8
0
100
AcDbLine
10
9.3277999999999963
20
1.6417760968229447
30
0
11
9.5112800000000011
21
1.775936096822939
31
0
0
LINE
5
193
100
AcDbEntity
8
0
100
AcDbLine
10
-16.969239999999996
20
0.23609609682294447
30
0
11
-16.601919999999996
21
0.36641609682294379
31
0
0
LINE
5
194
100
AcDbEntity
8
0
100
AcDbLine
10
3.6519199999999987
20
-8.2019439031770602
30
0
11
3.7984399999999976
21
-8.1283839031770597
31
0
0
LINE
5
195
100
AcDbEntity
8
0
100
AcDbLine
10
13.049719999999995
20
3.389816096822944
30
0
11
12.553640000000003
21
3.1489760968229419
31
0
0
LINE
5
196
100
AcDbEntity
8
0
100
AcDbLine
10
-18.531760000000002
20
-0.46818390317706154
30
0
11
-17.729559999999999
21
-0.1192239031770545
31
0
0
LINE
5
197
100
AcDbEntity
8
0
100
AcDbLine
10
-17.729559999999999
20
-0.1192239031770545
30
0
11
-17.579920000000001
21
-0.046383903177060481
31
0
0
LINE
5
198
100
AcDbEntity
8
0
100
AcDbLine
10
-12.833680000000001
20
-6.8152239031770545
30
0
11
-13.344280000000001
21
-7.0529439031770558
31
0
0
LINE
5
199
100
AcDbEntity
8
0
100
AcDbLine
10
14.609599999999993
20
-7.4525439031770535
30
0
11
14.513960000000001
21
-7.4057439031770578
31
0
0
LINE
5
200
100
AcDbEntity
8
0
100
AcDbLine
10
-13.558360000000002
20
-7.151223903177053
30
0
11
-13.630600000000001
21
-7.1817039031770591
31
0
0
LINE
5
201
100
AcDbEntity
8
0
100
AcDbLine
10
-16.601919999999996
20
0.36641609682294379
30
0
11
-16.478920000000002
21
0.36641609682294379
31
0
0
LINE
5
202
100
AcDbEntity
8
0
100
AcDbLine
10
-16.266760000000005
20
0.37361609682293767
30
0
11
-16.094200000000004
21
0.37673609682293857
31
0
0
LINE
5
203
100
AcDbEntity
8
0
100
AcDbLine
10
-14.990080000000001
20
0.095576096822940493
30
0
11
-14.984079999999997
21
0.092936096822935632
31
0
0
LINE
5
204
100
AcDbEntity
8
0
100
AcDbLine
10
14.748919999999998
20
-7.4931039031770563
30
0
11
14.609599999999993
21
-7.4525439031770535
31
0
0
LINE
5
205
100
AcDbEntity
8
0
100
AcDbLine
10
11.603839999999998
20
2.6990960968229416
30
0
11
10.484000000000002
21
2.1769760968229428
31
0
0
LINE
5
206
100
AcDbEntity
8
0
100
AcDbLine
10
21.866119999999995
20
2.6587760968229457
30
0
11
21.866119999999995
21
2.7960560968229409
31
0
0
LINE
5
207
100
AcDbEntity
8
0
100
AcDbLine
10
7.8363199999999935
20
-3.7345839031770645
30
0
11
8.4142400000000119
21
-3.4415439031770578
31
0
0
LINE
5
208
100
AcDbEntity
8
0
100
AcDbLine
10
-16.323400000000003
20
0.37097609682294169
30
0
11
-16.266760000000005
21
0.37361609682293767
31
0
0
LINE
5
209
100
AcDbEntity
8
0
100
AcDbLine
10
-12.189159999999999
20
-10.903263903177059
30
0
11
-11.694400000000005
21
-10.565223903177055
31
0
0
LINE
5
210
100
AcDbEntity
8
0
100
AcDbLine
10
14.513960000000001
20
-7.4057439031770578
30
0
11
14.483240000000006
21
-7.3894239031770548
31
0
0
LINE
5
211
100
AcDbEntity
8
0
100
AcDbLine
10
-20.928040000000003
20
-0.091263903177063177
30
0
11
-20.328520000000001
21
-0.51834390317705625
31
0
0
LINE
5
212
100
AcDbEntity
8
0
100
AcDbLine
10
11.934439999999997
20
-10.478103903177063
30
0
11
12.112280000000004
21
-10.563183903177059
31
0
0
LINE
5
213
100
AcDbEntity
8
0
100
AcDbLine
10
3.7984399999999976
20
-8.1283839031770597
30
0
11
4.4716400000000025
21
-7.7397039031770598
31
0
0
LINE
5
214
100
AcDbEntity
8
0
100
AcDbLine
10
-7.8818799999999998
20
-3.5002239031770532
30
0
11
-7.6500399999999988
21
-4.3517439031770522
31
0
0
LINE
5
215
100
AcDbEntity
8
0
100
AcDbLine
10
-13.344280000000001
20
-7.0529439031770558
30
0
11
-13.558360000000002
21
-7.151223903177053
31
0
0
LINE
5
216
100
AcDbEntity
8
0
100
AcDbLine
10
-0.029080000000002645
20
-9.5221839031770585
30
0
11
0.19159999999999711
21
-9.5221839031770585
31
0
0
LINE
5
217
100
AcDbEntity
8
0
100
AcDbLine
10
-21.456760000000003
20
1.1970560968229462
30
0
11
-21.318039999999996
21
0.56621609682293816
31
0
0
LINE
5
218
100
AcDbEntity
8
0
100
AcDbLine
10
-16.094200000000004
20
0.37673609682293857
30
0
11
-15.802600000000002
21
0.35345609682294415
31
0
0
LINE
5
219
100
AcDbEntity
8
0
100
AcDbLine
10
12.606440000000003
20
-10.90194390317706
30
0
11
13.114159999999996
21
-11.448783903177059
31
0
0
LINE
5
220
100
AcDbEntity
8
0
100
AcDbLine
10
-8.8063600000000015
20
-3.0340239031770544
30
0
11
-8.1129999999999978
21
-3.3835839031770565
31
0
0
LINE
5
221
100
AcDbEntity
8
0
100
AcDbLine
10
-11.694400000000005
20
-10.565223903177055
30
0
11
-11.516680000000001
21
-10.479903903177057
31
0
0
LINE
5
222
100
AcDbEntity
8
0
100
AcDbLine
10
16.43
20
-7.2294639031770647
30
0
11
16.325119999999995
21
-7.2683439031770547
31
0
0
LINE
5
223
100
AcDbEntity
8
0
100
AcDbLine
10
13.937119999999991
20
-13.684383903177061
30
0
11
14.567959999999999
21
-14.445423903177055
31
0
0
LINE
5
224
100
AcDbEntity
8
0
100
AcDbLine
10
7.5731600000000068
20
-4.0860639031770596
30
0
11
7.638320000000002
21
-3.8549439031770572
31
0
0
LINE
5
225
100
AcDbEntity
8
0
100
AcDbLine
10
7.7905999999999977
20
-4.2168639031770638
30
0
11
7.5659599999999951
21
-4.1095839031770609
31
0
0
LINE
5
226
100
AcDbEntity
8
0
100
AcDbLine
10
16.325119999999995
20
-7.2683439031770547
30
0
11
15.84008
21
-7.433703903177058
31
0
0
LINE
5
227
100
AcDbEntity
8
0
100
AcDbLine
10
-10.400679999999999
20
17.51945609682295
30
0
11
-10.708720000000007
21
17.24081609682294
31
0
0
LINE
5
228
100
AcDbEntity
8
0
100
AcDbLine
10
15.426560000000002
20
5.9106560968229438
30
0
11
15.212480000000001
21
5.6039360968229346
31
0
0
LINE
5
229
100
AcDbEntity
8
0
100
AcDbLine
10
-16.010920000000002
20
-7.2318639031770626
30
0
11
-16.128760000000003
21
-7.1877039031770629
31
0
0
LINE
5
230
100
AcDbEntity
8
0
100
AcDbLine
10
13.622599999999993
20
-12.726063903177058
30
0
11
13.648759999999999
21
-12.930543903177059
31
0
0
LINE
5
231
100
AcDbEntity
8
0
100
AcDbLine
10
-8.1129999999999978
20
-3.3835839031770565
30
0
11
-7.8818799999999998
21
-3.5002239031770532
31
0
0
LINE
5
232
100
AcDbEntity
8
0
100
AcDbLine
10
-12.697000000000001
20
-11.450703903177057
30
0
11
-12.189159999999999
21
-10.903263903177059
31
0
0
LINE
5
233
100
AcDbEntity
8
0
100
AcDbLine
10
13.114159999999996
20
-11.448783903177059
30
0
11
13.460599999999998
21
-12.123183903177065
31
0
0
LINE
5
234
100
AcDbEntity
8
0
100
AcDbLine
10
-11.516680000000001
20
-10.479903903177057
30
0
11
-10.55776
21
-10.025583903177058
31
0
0
LWPOLYLINE
5
235
100
AcDbEntity
8
0
100
AcDbPolyline
90
4
70
1
43
0.0
10
-7.8746800000000015
20
-3.4825839031770656
10
-7.6513600000000013
20
-4.3295439031770577
10
-7.6807600000000029
20
-4.2547839031770618
10
-7.8668799999999948
20
-3.5483439031770558
0
LINE
5
236
100
AcDbEntity
8
0
100
AcDbLine
10
-7.2497199999999982
20
20.486096096822941
30
0
11
-8.3579200000000018
21
19.453616096822941
31
0
0
LINE
5
237
100
AcDbEntity
8
0
100
AcDbLine
10
-5.0785599999999995
20
-7.4460639031770626
30
0
11
-4.9847199999999923
21
-7.5132639031770632
31
0
0
LINE
5
238
100
AcDbEntity
8
0
100
AcDbLine
10
15.30944
20
-7.5215439031770526
30
0
11
15.222319999999991
21
-7.5215439031770526
31
0
0
LINE
5
239
100
AcDbEntity
8
0
100
AcDbLine
10
-12.587080000000002
20
15.385256096822939
30
0
11
-13.219719999999999
21
14.443976096822944
31
0
0
LINE
5
240
100
AcDbEntity
8
0
100
AcDbLine
10
8.4142400000000119
20
-3.4415439031770578
30
0
11
9.4962800000000005
21
-2.8933839031770603
31
0
0
LINE
5
241
100
AcDbEntity
8
0
100
AcDbLine
10
13.460599999999998
20
-12.123183903177065
30
0
11
13.622599999999993
21
-12.726063903177058
31
0
0
LINE
5
242
100
AcDbEntity
8
0
100
AcDbLine
10
15.212480000000001
20
5.6039360968229346
30
0
11
15.120800000000003
21
5.4718160968229412
31
0
0
LINE
5
243
100
AcDbEntity
8
0
100
AcDbLine
10
22.008799999999997
20
-8.8817439031770604
30
0
11
21.683839999999996
21
-8.1394239031770574
31
0
0
LINE
5
244
100
AcDbEntity
8
0
100
AcDbLine
10
-7.8720399999999966
20
-4.4572239031770611
30
0
11
-8.5375599999999991
21
-4.775583903177063
31
0
0
LINE
5
245
100
AcDbEntity
8
0
100
AcDbLine
10
-7.6500399999999988
20
-4.3517439031770522
30
0
11
-7.8720399999999966
21
-4.4572239031770611
31
0
0
LINE
5
246
100
AcDbEntity
8
0
100
AcDbLine
10
7.638320000000002
20
-3.8549439031770572
30
0
11
7.6434799999999949
21
-3.8322639031770578
31
0
0
LINE
5
247
100
AcDbEntity
8
0
100
AcDbLine
10
21.779000000000003
20
3.2081360968229333
30
0
11
21.522440000000003
21
3.7933760968229446
31
0
0
LINE
5
248
100
AcDbEntity
8
0
100
AcDbLine
10
-16.484080000000002
20
-7.0613439031770575
30
0
11
-17.018560000000001
21
-6.9025839031770619
31
0
0
LINE
5
249
100
AcDbEntity
8
0
100
AcDbLine
10
-21.318039999999996
20
0.56621609682293816
30
0
11
-20.928040000000003
21
-0.091263903177063177
31
0
0
LINE
5
250
100
AcDbEntity
8
0
100
AcDbLine
10
7.5659599999999951
20
-4.1095839031770609
30
0
11
7.5731600000000068
21
-4.0860639031770596
31
0
0
LINE
5
251
100
AcDbEntity
8
0
100
AcDbLine
10
20.524279999999997
20
4.8149360968229438
30
0
11
20.515279999999994
21
4.9640960968229386
31
0
0
LINE
5
252
100
AcDbEntity
8
0
100
AcDbLine
10
-9.7042000000000002
20
18.153416096822941
30
0
11
-9.816279999999999
21
18.051296096822949
31
0
0
LINE
5
253
100
AcDbEntity
8
0
100
AcDbLine
10
-8.6858800000000009
20
19.13081609682294
30
0
11
-9.7042000000000002
21
18.153416096822941
31
0
0
LINE
5
254
100
AcDbEntity
8
0
100
AcDbLine
10
-15.420400000000003
20
-7.436343903177054
30
0
11
-15.906040000000001
21
-7.2711039031770586
31
0
0
LINE
5
255
100
AcDbEntity
8
0
100
AcDbLine
10
-21.456760000000003
20
2.6574560968229477
30
0
11
-21.456760000000003
21
1.4068160968229384
31
0
0
LINE
5
256
100
AcDbEntity
8
0
100
AcDbLine
10
15.84008
20
-7.433703903177058
30
0
11
15.441559999999994
21
-7.5215439031770526
31
0
0
LINE
5
257
100
AcDbEntity
8
0
100
AcDbLine
10
-8.5895200000000003
20
19.224416096822932
30
0
11
-8.6858800000000009
21
19.13081609682294
31
0
0
LINE
5
258
100
AcDbEntity
8
0
100
AcDbLine
10
-21.456760000000003
20
1.4068160968229384
30
0
11
-21.456760000000003
21
1.1970560968229462
31
0
0
LINE
5
259
100
AcDbEntity
8
0
100
AcDbLine
10
10.477399999999994
20
-5.4989439031770537
30
0
11
9.4559600000000046
21
-5.0125839031770614
31
0
0
LINE
5
260
100
AcDbEntity
8
0
100
AcDbLine
10
-10.708720000000007
20
17.24081609682294
30
0
11
-11.622760000000005
21
16.393736096822941
31
0
0
LINE
5
261
100
AcDbEntity
8
0
100
AcDbLine
10
13.648759999999999
20
-12.930543903177059
30
0
11
13.672760000000006
21
-13.124583903177056
31
0
0
LINE
5
262
100
AcDbEntity
8
0
100
AcDbLine
10
-9.816279999999999
20
18.051296096822949
30
0
11
-10.400679999999999
21
17.51945609682295
31
0
0
LINE
5
263
100
AcDbEntity
8
0
100
AcDbLine
10
9.4559600000000046
20
-5.0125839031770614
30
0
11
8.4664400000000075
21
-4.5399039031770627
31
0
0
LINE
5
264
100
AcDbEntity
8
0
100
AcDbLine
10
21.683839999999996
20
-8.1394239031770574
30
0
11
20.870719999999992
21
-7.3855839031770643
31
0
0
LINE
5
265
100
AcDbEntity
8
0
100
AcDbLine
10
16.232119999999998
20
-15.269703903177057
30
0
11
16.493119999999994
21
-15.269703903177057
31
0
0
LINE
5
266
100
AcDbEntity
8
0
100
AcDbLine
10
-16.128760000000003
20
-7.1877039031770629
30
0
11
-16.484080000000002
21
-7.0613439031770575
31
0
0
LINE
5
267
100
AcDbEntity
8
0
100
AcDbLine
10
-11.622760000000005
20
16.393736096822941
30
0
11
-12.587080000000002
21
15.385256096822939
31
0
0
LINE
5
268
100
AcDbEntity
8
0
100
AcDbLine
10
-8.3579200000000018
20
19.453616096822941
30
0
11
-8.5895200000000003
21
19.224416096822932
31
0
0
LINE
5
269
100
AcDbEntity
8
0
100
AcDbLine
10
-13.219719999999999
20
14.443976096822944
30
0
11
-13.447000000000003
21
13.751096096822941
31
0
0
LINE
5
270
100
AcDbEntity
8
0
100
AcDbLine
10
8.4664400000000075
20
-4.5399039031770627
30
0
11
7.7905999999999977
21
-4.2168639031770638
31
0
0
LINE
5
271
100
AcDbEntity
8
0
100
AcDbLine
10
21.522440000000003
20
3.7933760968229446
30
0
11
21.101840000000003
21
4.3507760968229459
31
0
0
LINE
5
272
100
AcDbEntity
8
0
100
AcDbLine
10
18.876560000000008
20
-13.410903903177056
30
0
11
18.888919999999995
21
-13.332903903177055
31
0
0
LINE
5
273
100
AcDbEntity
8
0
100
AcDbLine
10
15.536119999999995
20
6.0611360968229366
30
0
11
15.426560000000002
21
5.9106560968229438
31
0
0
LINE
5
274
100
AcDbEntity
8
0
100
AcDbLine
10
15.441559999999994
20
-7.5215439031770526
30
0
11
15.30944
21
-7.5215439031770526
31
0
0
LINE
5
275
100
AcDbEntity
8
0
100
AcDbLine
10
19.005439999999993
20
-12.719583903177059
30
0
11
19.164919999999992
21
-11.921343903177055
31
0
0
LINE
5
276
100
AcDbEntity
8
0
100
AcDbLine
10
21.101840000000003
20
4.3507760968229459
30
0
11
20.681240000000003
21
4.7198960968229464
31
0
0
LINE
5
277
100
AcDbEntity
8
0
100
AcDbLine
10
7.6434799999999949
20
-3.8322639031770578
30
0
11
7.8363199999999935
21
-3.7345839031770645
31
0
0
LINE
5
278
100
AcDbEntity
8
0
100
AcDbLine
10
-14.095360000000003
20
-7.4083839031770626
30
0
11
-14.191240000000002
21
-7.4551839031770584
31
0
0
LINE
5
279
100
AcDbEntity
8
0
100
AcDbLine
10
13.672760000000006
20
-13.124583903177056
30
0
11
13.937119999999991
21
-13.684383903177061
31
0
0
LINE
5
280
100
AcDbEntity
8
0
100
AcDbLine
10
14.9618
20
-7.5150639031770616
30
0
11
14.748919999999998
21
-7.4931039031770563
31
0
0
LINE
5
281
100
AcDbEntity
8
0
100
AcDbLine
10
-21.265360000000008
20
-8.1414639031770584
30
0
11
-21.589600000000004
21
-8.883543903177058
31
0
0
LINE
5
282
100
AcDbEntity
8
0
100
AcDbLine
10
-14.330439999999996
20
-7.4956239031770577
30
0
11
-14.54344
21
-7.5171039031770626
31
0
0
LINE
5
283
100
AcDbEntity
8
0
100
AcDbLine
10
20.461759999999998
20
5.4088160968229371
30
0
11
20.33491999999999
21
5.9652560968229373
31
0
0
LINE
5
284
100
AcDbEntity
8
0
100
AcDbLine
10
12.112280000000004
20
-10.563183903177059
30
0
11
12.606440000000003
21
-10.90194390317706
31
0
0
LINE
5
285
100
AcDbEntity
8
0
100
AcDbLine
10
9.4962800000000005
20
-2.8933839031770603
30
0
11
10.762640000000003
21
-2.252103903177058
31
0
0
LINE
5
286
100
AcDbEntity
8
0
100
AcDbLine
10
15.120800000000003
20
5.4718160968229412
30
0
11
14.840719999999996
21
5.0785760968229443
31
0
0
LINE
5
287
100
AcDbEntity
8
0
100
AcDbLine
10
21.866119999999995
20
2.7960560968229409
30
0
11
21.779000000000003
21
3.2081360968229333
31
0
0
LINE
5
288
100
AcDbEntity
8
0
100
AcDbLine
10
-13.447000000000003
20
13.520096096822947
30
0
11
-13.447000000000003
21
13.142456096822945
31
0
0
LINE
5
289
100
AcDbEntity
8
0
100
AcDbLine
10
-13.447000000000003
20
13.751096096822941
30
0
11
-13.447000000000003
21
13.520096096822947
31
0
0
LINE
5
290
100
AcDbEntity
8
0
100
AcDbLine
10
21.866119999999995
20
1.4081360968229364
30
0
11
21.866119999999995
21
2.6587760968229457
31
0
0
LINE
5
291
100
AcDbEntity
8
0
100
AcDbLine
10
-14.064159999999999
20
-7.3920639031770641
30
0
11
-14.095360000000003
21
-7.4083839031770626
31
0
0
LINE
5
292
100
AcDbEntity
8
0
100
AcDbLine
10
-20.451520000000002
20
-7.3876239031770563
30
0
11
-21.265360000000008
21
-8.1414639031770584
31
0
0
LINE
5
293
100
AcDbEntity
8
0
100
AcDbLine
10
-14.54344
20
-7.5171039031770626
30
0
11
-14.803720000000002
21
-7.5235839031770624
31
0
0
LINE
5
294
100
AcDbEntity
8
0
100
AcDbLine
10
5.0771599999999975
20
-7.3210239031770552
30
0
11
5.1897199999999923
21
-7.2331839031770606
31
0
0
LINE
5
295
100
AcDbEntity
8
0
100
AcDbLine
10
-14.890360000000003
20
-7.5235839031770624
30
0
11
-15.023199999999999
21
-7.5235839031770624
31
0
0
LINE
5
296
100
AcDbEntity
8
0
100
AcDbLine
10
20.515279999999994
20
4.9640960968229386
30
0
11
20.461759999999998
21
5.4088160968229371
31
0
0
LINE
5
297
100
AcDbEntity
8
0
100
AcDbLine
10
-14.191240000000002
20
-7.4551839031770584
30
0
11
-14.330439999999996
21
-7.4956239031770577
31
0
0
LINE
5
298
100
AcDbEntity
8
0
100
AcDbLine
10
20.681240000000003
20
4.7198960968229464
30
0
11
20.524279999999997
21
4.8149360968229438
31
0
0
LINE
5
299
100
AcDbEntity
8
0
100
AcDbLine
10
22.008799999999997
20
-9.3347439031770563
30
0
11
22.008799999999997
21
-9.12978390317706
31
0
0
LINE
5
300
100
AcDbEntity
8
0
100
AcDbLine
10
16.504160000000002
20
0.37805609682294544
30
0
11
16.676600000000001
21
0.37481609682293665
31
0
0
LINE
5
301
100
AcDbEntity
8
0
100
AcDbLine
10
15.400640000000003
20
0.096776096822948354
30
0
11
15.508759999999999
21
0.14765609682294595
31
0
0
LINE
5
302
100
AcDbEntity
8
0
100
AcDbLine
10
-21.370239999999999
20
3.2069360968229343
30
0
11
-21.456760000000003
21
2.794736096822934
31
0
0
LINE
5
303
100
AcDbEntity
8
0
100
AcDbLine
10
19.972279999999991
20
-0.67074390317705102
30
0
11
20.164279999999994
21
-0.67074390317705102
31
0
0
LINE
5
304
100
AcDbEntity
8
0
100
AcDbLine
10
-16.849359999999997
20
-15.144783903177061
30
0
11
-16.268559999999997
21
-15.272223903177057
31
0
0
LINE
5
305
100
AcDbEntity
8
0
100
AcDbLine
10
-20.692360000000004
20
4.3494560968229479
30
0
11
-21.113079999999997
21
3.7920560968229466
31
0
0
LINE
5
306
100
AcDbEntity
8
0
100
AcDbLine
10
11.349919999999988
20
16.437296096822944
30
0
11
10.389559999999999
21
17.288936096822933
31
0
0
LINE
5
307
100
AcDbEntity
8
0
100
AcDbLine
10
-11.098000000000001
20
7.7503760968229418
30
0
11
-11.250400000000004
21
6.4164560968229445
31
0
0
LINE
5
308
100
AcDbEntity
8
0
100
AcDbLine
10
-20.105200000000004
20
4.9627760968229406
30
0
11
-20.113720000000001
21
4.8136160968229369
31
0
0
LINE
5
309
100
AcDbEntity
8
0
100
AcDbLine
10
16.547840000000004
20
-7.186383903177056
30
0
11
16.43
21
-7.2294639031770647
31
0
0
LINE
5
310
100
AcDbEntity
8
0
100
AcDbLine
10
-17.025040000000001
20
7.3194560968229361
30
0
11
-17.743839999999999
21
7.4549360968229372
31
0
0
LINE
5
311
100
AcDbEntity
8
0
100
AcDbLine
10
-14.154760000000001
20
-14.446023903177053
30
0
11
-13.523199999999999
21
-13.685103903177058
31
0
0
LINE
5
312
100
AcDbEntity
8
0
100
AcDbLine
10
12.508760000000001
20
10.60073609682294
30
0
11
13.051160000000001
21
12.00305609682295
31
0
0
LINE
5
313
100
AcDbEntity
8
0
100
AcDbLine
10
10.389559999999999
20
17.288936096822933
30
0
11
10.06664
21
17.56889609682294
31
0
0
LINE
5
314
100
AcDbEntity
8
0
100
AcDbLine
10
14.483240000000006
20
-7.3894239031770548
30
0
11
14.049800000000003
21
-7.1791839031770621
31
0
0
LINE
5
315
100
AcDbEntity
8
0
100
AcDbLine
10
-18.148240000000001
20
-14.193543903177058
30
0
11
-17.575839999999999
21
-14.778183903177062
31
0
0
LINE
5
316
100
AcDbEntity
8
0
100
AcDbLine
10
10.815440000000002
20
7.884656096822944
30
0
11
11.049079999999993
21
8.2315760968229412
31
0
0
LINE
5
317
100
AcDbEntity
8
0
100
AcDbLine
10
13.051160000000001
20
12.00305609682295
30
0
11
13.265960000000005
21
13.139096096822946
31
0
0
LINE
5
318
100
AcDbEntity
8
0
100
AcDbLine
10
-17.575839999999999
20
-14.778183903177062
30
0
11
-16.849359999999997
21
-15.144783903177061
31
0
0
LINE
5
319
100
AcDbEntity
8
0
100
AcDbLine
10
10.484000000000002
20
2.1769760968229428
30
0
11
9.6167600000000011
21
1.7752160968229449
31
0
0
LINE
5
320
100
AcDbEntity
8
0
100
AcDbLine
10
-9.9000400000000006
20
-2.4811839031770595
30
0
11
-8.8063600000000015
21
-3.0340239031770544
31
0
0
LINE
5
321
100
AcDbEntity
8
0
100
AcDbLine
10
19.715119999999999
20
-0.67074390317705102
30
0
11
19.972279999999991
21
-0.67074390317705102
31
0
0
LINE
5
322
100
AcDbEntity
8
0
100
AcDbLine
10
-20.113720000000001
20
4.8136160968229369
30
0
11
-20.111680000000007
21
4.8136160968229369
31
0
0
LINE
5
323
100
AcDbEntity
8
0
100
AcDbLine
10
12.085640000000001
20
-1.5822639031770611
30
0
11
13.338080000000005
21
-0.94746390317706797
31
0
0
LINE
5
324
100
AcDbEntity
8
0
100
AcDbLine
10
-18.588160000000002
20
-12.722223903177055
30
0
11
-18.471760000000003
21
-13.334703903177058
31
0
0
LINE
5
325
100
AcDbEntity
8
0
100
AcDbLine
10
-19.92484
20
5.9647760968229502
30
0
11
-20.052520000000001
21
5.408096096822943
31
0
0
LINE
5
326
100
AcDbEntity
8
0
100
AcDbLine
10
-20.113720000000001
20
4.8136160968229369
30
0
11
-20.271160000000002
21
4.7185760968229395
31
0
0
LINE
5
327
100
AcDbEntity
8
0
100
AcDbLine
10
-20.105200000000004
20
4.8188960968229377
30
0
11
-20.105920000000005
21
4.8188960968229377
31
0
0
LINE
5
328
100
AcDbEntity
8
0
100
AcDbLine
10
-20.052520000000001
20
5.408096096822943
30
0
11
-20.105200000000004
21
4.9627760968229406
31
0
0
LINE
5
329
100
AcDbEntity
8
0
100
AcDbLine
10
-11.064879999999999
20
7.9880960968229431
30
0
11
-11.098000000000001
21
7.7503760968229418
31
0
0
LINE
5
330
100
AcDbEntity
8
0
100
AcDbLine
10
-19.488760000000006
20
6.7999760968229417
30
0
11
-19.713160000000002
21
6.4666160968229391
31
0
0
LINE
5
331
100
AcDbEntity
8
0
100
AcDbLine
10
13.026919999999997
20
14.464136096822937
30
0
11
12.362240000000002
21
15.419816096822938
31
0
0
LINE
5
332
100
AcDbEntity
8
0
100
AcDbLine
10
12.362240000000002
20
15.419816096822938
30
0
11
11.349919999999988
21
16.437296096822944
31
0
0
LINE
5
333
100
AcDbEntity
8
0
100
AcDbLine
10
-3.856600000000002
20
-8.1850239031770577
30
0
11
-3.6234399999999987
21
-8.3022639031770584
31
0
0
LINE
5
334
100
AcDbEntity
8
0
100
AcDbLine
10
-18.180760000000003
20
7.4549360968229372
30
0
11
-18.772600000000001
21
7.3142960968229431
31
0
0
LINE
5
335
100
AcDbEntity
8
0
100
AcDbLine
10
-12.236680000000002
20
-1.2990639031770621
30
0
11
-11.073399999999999
21
-1.8875439031770556
31
0
0
LINE
5
336
100
AcDbEntity
8
0
100
AcDbLine
10
-1.7849200000000001
20
-9.0556239031770591
30
0
11
-0.68920000000000003
21
-9.3888639031770538
31
0
0
LINE
5
337
100
AcDbEntity
8
0
100
AcDbLine
10
1.7236400000000027
20
-9.1199439031770559
30
0
11
2.6525600000000029
21
-8.6980239031770612
31
0
0
LINE
5
338
100
AcDbEntity
8
0
100
AcDbLine
10
-19.561599999999999
20
-0.67134390317705495
30
0
11
-19.30444
21
-0.67134390317705495
31
0
0
LINE
5
339
100
AcDbEntity
8
0
100
AcDbLine
10
10.06664
20
17.56889609682294
30
0
11
9.6298399999999997
21
17.947736096822933
31
0
0
LINE
5
340
100
AcDbEntity
8
0
100
AcDbLine
10
12.385640000000004
20
-6.4043439031770522
30
0
11
11.472919999999995
21
-5.9722239031770563
31
0
0
LINE
5
341
100
AcDbEntity
8
0
100
AcDbLine
10
2.6525600000000029
20
-8.6980239031770612
30
0
11
3.4025600000000047
21
-8.3268639031770597
31
0
0
LINE
5
342
100
AcDbEntity
8
0
100
AcDbLine
10
-18.138400000000001
20
-6.7397439031770556
30
0
11
-18.309520000000003
21
-6.7397439031770556
31
0
0
LINE
5
343
100
AcDbEntity
8
0
100
AcDbLine
10
13.15784
20
-6.7684239031770588
30
0
11
12.385640000000004
21
-6.4043439031770522
31
0
0
LINE
5
344
100
AcDbEntity
8
0
100
AcDbLine
10
-13.299880000000003
20
-0.76062390317705542
30
0
11
-12.236680000000002
21
-1.2990639031770621
31
0
0
LINE
5
345
100
AcDbEntity
8
0
100
AcDbLine
10
-18.772600000000001
20
7.3142960968229431
30
0
11
-19.307080000000003
21
6.9874160968229404
31
0
0
LINE
5
346
100
AcDbEntity
8
0
100
AcDbLine
10
-19.307080000000003
20
6.9874160968229404
30
0
11
-19.396840000000001
21
6.8944160968229351
31
0
0
LINE
5
347
100
AcDbEntity
8
0
100
AcDbLine
10
-11.073399999999999
20
-1.8875439031770556
30
0
11
-9.9000400000000006
21
-2.4811839031770595
31
0
0
LINE
5
348
100
AcDbEntity
8
0
100
AcDbLine
10
11.049079999999993
20
8.2315760968229412
30
0
11
11.237959999999998
21
8.5050560968229494
31
0
0
LINE
5
349
100
AcDbEntity
8
0
100
AcDbLine
10
-3.9665200000000009
20
-8.1304239031770553
30
0
11
-3.856600000000002
21
-8.1850239031770577
31
0
0
LINE
5
350
100
AcDbEntity
8
0
100
AcDbLine
10
-10.421560000000001
20
-5.6740239031770567
30
0
11
-11.326600000000003
21
-6.1037439031770546
31
0
0
LINE
5
351
100
AcDbEntity
8
0
100
AcDbLine
10
13.968919999999995
20
-7.145463903177065
30
0
11
13.731440000000001
21
-7.0351839031770602
31
0
0
LINE
5
352
100
AcDbEntity
8
0
100
AcDbLine
10
14.840719999999996
20
5.0785760968229443
30
0
11
14.364079999999994
21
4.4724560968229454
31
0
0
LINE
5
353
100
AcDbEntity
8
0
100
AcDbLine
10
-19.753720000000005
20
-0.67134390317705495
30
0
11
-19.561599999999999
21
-0.67134390317705495
31
0
0
LINE
5
354
100
AcDbEntity
8
0
100
AcDbLine
10
-12.145600000000004
20
-6.4917039031770596
30
0
11
-12.833680000000001
21
-6.8152239031770545
31
0
0
LINE
5
355
100
AcDbEntity
8
0
100
AcDbLine
10
-12.689200000000003
20
10.605296096822938
30
0
11
-11.971000000000005
21
9.3390560968229419
31
0
0
LINE
5
356
100
AcDbEntity
8
0
100
AcDbLine
10
-11.230839999999997
20
8.2342160968229372
30
0
11
-11.064879999999999
21
7.9880960968229431
31
0
0
LINE
5
357
100
AcDbEntity
8
0
100
AcDbLine
10
13.731440000000001
20
-7.0351839031770602
30
0
11
13.15784
21
-6.7684239031770588
31
0
0
LINE
5
358
100
AcDbEntity
8
0
100
AcDbLine
10
11.032759999999994
20
6.6268160968229406
30
0
11
10.850479999999997
21
7.7185760968229467
31
0
0
LINE
5
359
100
AcDbEntity
8
0
100
AcDbLine
10
14.049800000000003
20
-7.1791839031770621
30
0
11
13.968919999999995
21
-7.145463903177065
31
0
0
LINE
5
360
100
AcDbEntity
8
0
100
AcDbLine
10
4.4716400000000025
20
-7.7397039031770598
30
0
11
5.0771599999999975
21
-7.3210239031770552
31
0
0
LINE
5
361
100
AcDbEntity
8
0
100
AcDbLine
10
20.870719999999992
20
-7.3855839031770643
30
0
11
19.805599999999998
21
-6.9051039031770589
31
0
0
LINE
5
362
100
AcDbEntity
8
0
100
AcDbLine
10
0.19159999999999711
20
-9.5221839031770585
30
0
11
0.36679999999999913
21
-9.5221839031770585
31
0
0
LINE
5
363
100
AcDbEntity
8
0
100
AcDbLine
10
13.200080000000007
20
3.4666160968229409
30
0
11
13.049719999999995
21
3.389816096822944
31
0
0
LINE
5
364
100
AcDbEntity
8
0
100
AcDbLine
10
-3.6234399999999987
20
-8.3022639031770584
30
0
11
-2.904759999999996
21
-8.6212239031770554
31
0
0
LINE
5
365
100
AcDbEntity
8
0
100
AcDbLine
10
13.808239999999998
20
3.8976560968229457
30
0
11
13.364119999999994
21
3.5512160968229356
31
0
0
LINE
5
366
100
AcDbEntity
8
0
100
AcDbLine
10
-18.309520000000003
20
-6.7397439031770556
30
0
11
-18.579160000000002
21
-6.7397439031770556
31
0
0
LINE
5
367
100
AcDbEntity
8
0
100
AcDbLine
10
-2.904759999999996
20
-8.6212239031770554
30
0
11
-1.7849200000000001
21
-9.0556239031770591
31
0
0
LINE
5
368
100
AcDbEntity
8
0
100
AcDbLine
10
11.14411999999999
20
4.7615360968229403
30
0
11
11.14411999999999
21
5.0525360968229371
31
0
0
LINE
5
369
100
AcDbEntity
8
0
100
AcDbLine
10
18.043280000000003
20
-6.7834239031770593
30
0
11
17.437759999999997
21
-6.9018639031770679
31
0
0
LINE
5
370
100
AcDbEntity
8
0
100
AcDbLine
10
-17.018560000000001
20
-6.9025839031770619
30
0
11
-17.624679999999998
21
-6.7852239031770534
31
0
0
LINE
5
371
100
AcDbEntity
8
0
100
AcDbLine
10
13.265960000000005
20
13.754456096822949
30
0
11
13.026919999999997
21
14.464136096822937
31
0
0
LINE
5
372
100
AcDbEntity
8
0
100
AcDbLine
10
-18.579160000000002
20
-6.7397439031770556
30
0
11
-19.386400000000005
21
-6.9077439031770549
31
0
0
LINE
5
373
100
AcDbEntity
8
0
100
AcDbLine
10
18.997640000000004
20
-6.7371039031770596
30
0
11
18.728840000000002
21
-6.7371039031770596
31
0
0
LINE
5
374
100
AcDbEntity
8
0
100
AcDbLine
10
-17.624679999999998
20
-6.7852239031770534
30
0
11
-18.138400000000001
21
-6.7397439031770556
31
0
0
LINE
5
375
100
AcDbEntity
8
0
100
AcDbLine
10
16.902560000000001
20
-7.0607439031770536
30
0
11
16.547840000000004
21
-7.186383903177056
31
0
0
LINE
5
376
100
AcDbEntity
8
0
100
AcDbLine
10
-17.579920000000001
20
-0.046383903177060481
30
0
11
-17.475759999999998
21
0.0043760968229381025
31
0
0
LINE
5
377
100
AcDbEntity
8
0
100
AcDbLine
10
14.364079999999994
20
4.4724560968229454
30
0
11
13.808239999999998
21
3.8976560968229457
31
0
0
LINE
5
378
100
AcDbEntity
8
0
100
AcDbLine
10
11.14411999999999
20
5.0525360968229371
30
0
11
11.14411999999999
21
5.446376096822938
31
0
0
LINE
5
379
100
AcDbEntity
8
0
100
AcDbLine
10
-4.9847199999999923
20
-7.5132639031770632
30
0
11
-3.9665200000000009
21
-8.1304239031770553
31
0
0
LINE
5
380
100
AcDbEntity
8
0
100
AcDbLine
10
15.222319999999991
20
-7.5215439031770526
30
0
11
14.9618
21
-7.5150639031770616
31
0
0
LINE
5
381
100
AcDbEntity
8
0
100
AcDbLine
10
9.6167600000000011
20
1.7752160968229449
30
0
11
9.3277999999999963
21
1.6417760968229447
31
0
0
LINE
5
382
100
AcDbEntity
8
0
100
AcDbLine
10
0.36679999999999913
20
-9.5221839031770585
30
0
11
0.89408000000000021
21
-9.4122639031770596
31
0
0
LINE
5
383
100
AcDbEntity
8
0
100
AcDbLine
10
14.392759999999997
20
-0.41358390317705912
30
0
11
15.122599999999997
21
-0.043743903177055621
31
0
0
LINE
5
384
100
AcDbEntity
8
0
100
AcDbLine
10
19.805599999999998
20
-6.9051039031770589
30
0
11
18.997640000000004
21
-6.7371039031770596
31
0
0
LINE
5
385
100
AcDbEntity
8
0
100
AcDbLine
10
-11.326600000000003
20
-6.1037439031770546
30
0
11
-12.145600000000004
21
-6.4917039031770596
31
0
0
LINE
5
386
100
AcDbEntity
8
0
100
AcDbLine
10
14.567959999999999
20
-14.445423903177055
30
0
11
15.450080000000003
21
-15.033423903177056
31
0
0
LINE
5
387
100
AcDbEntity
8
0
100
AcDbLine
10
12.553640000000003
20
3.1489760968229419
30
0
11
11.603839999999998
21
2.6990960968229416
31
0
0
LINE
5
388
100
AcDbEntity
8
0
100
AcDbLine
10
-9.4762000000000022
20
-5.2234239031770535
30
0
11
-10.421560000000001
21
-5.6740239031770567
31
0
0
LINE
5
389
100
AcDbEntity
8
0
100
AcDbLine
10
-15.098679999999998
20
0.14621609682294007
30
0
11
-14.990080000000001
21
0.095576096822940493
31
0
0
LINE
5
390
100
AcDbEntity
8
0
100
AcDbLine
10
-17.743839999999999
20
7.4549360968229372
30
0
11
-17.983360000000001
21
7.4549360968229372
31
0
0
LINE
5
391
100
AcDbEntity
8
0
100
AcDbLine
10
17.437759999999997
20
-6.9018639031770679
30
0
11
16.902560000000001
21
-7.0607439031770536
31
0
0
LINE
5
392
100
AcDbEntity
8
0
100
AcDbLine
10
-21.456760000000003
20
2.794736096822934
30
0
11
-21.456760000000003
21
2.6574560968229477
31
0
0
LINE
5
393
100
AcDbEntity
8
0
100
AcDbLine
10
18.728840000000002
20
-6.7371039031770596
30
0
11
18.556999999999999
21
-6.7371039031770596
31
0
0
LINE
5
394
100
AcDbEntity
8
0
100
AcDbLine
10
-15.43792
20
0.2706560968229435
30
0
11
-15.098679999999998
21
0.14621609682294007
31
0
0
LINE
5
395
100
AcDbEntity
8
0
100
AcDbLine
10
18.556999999999999
20
-6.7371039031770596
30
0
11
18.043280000000003
21
-6.7834239031770593
31
0
0
LINE
5
396
100
AcDbEntity
8
0
100
AcDbLine
10
13.265960000000005
20
13.517456096822951
30
0
11
13.265960000000005
21
13.754456096822949
31
0
0
LWPOLYLINE
5
397
100
AcDbEntity
8
0
100
AcDbPolyline
90
5
70
1
43
0.0
10
-19.888359999999999
20
4.9477760968229401
10
-19.893519999999999
20
4.9432160968229422
10
-19.895560000000007
20
4.9432160968229422
10
-19.894839999999999
20
4.9439360968229362
10
-19.887039999999999
20
4.9477760968229401
0
LINE
5
398
100
AcDbEntity
8
0
100
AcDbLine
10
-11.971000000000005
20
9.3390560968229419
30
0
11
-11.419720000000002
21
8.5082960968229404
31
0
0
LINE
5
399
100
AcDbEntity
8
0
100
AcDbLine
10
-16.195720000000001
20
6.964736096822941
30
0
11
-17.025040000000001
21
7.3194560968229361
31
0
0
LINE
5
400
100
AcDbEntity
8
0
100
AcDbLine
10
18.152599999999996
20
7.4549360968229372
30
0
11
17.429960000000001
21
7.3189760968229489
31
0
0
LINE
5
401
100
AcDbEntity
8
0
100
AcDbLine
10
-18.7822
20
-11.75346390317706
30
0
11
-18.747760000000003
21
-11.924103903177059
31
0
0
LINE
5
402
100
AcDbEntity
8
0
100
AcDbLine
10
-16.268559999999997
20
-15.272223903177057
30
0
11
-16.07452
21
-15.272223903177057
31
0
0
LINE
5
403
100
AcDbEntity
8
0
100
AcDbLine
10
5.1897199999999923
20
-7.2331839031770606
30
0
11
11.934439999999997
21
-10.478103903177063
31
0
0
LINE
5
404
100
AcDbEntity
8
0
100
AcDbLine
10
-15.518560000000001
20
6.4692560968229529
30
0
11
-16.195720000000001
21
6.964736096822941
31
0
0
LINE
5
405
100
AcDbEntity
8
0
100
AcDbLine
10
11.790560000000003
20
9.335816096822942
30
0
11
12.508760000000001
21
10.60073609682294
31
0
0
LINE
5
406
100
AcDbEntity
8
0
100
AcDbLine
10
-13.232200000000002
20
12.00761609682294
30
0
11
-12.689200000000003
21
10.605296096822938
31
0
0
LINE
5
407
100
AcDbEntity
8
0
100
AcDbLine
10
-18.458680000000001
20
-13.412943903177062
30
0
11
-18.425560000000004
21
-13.614783903177061
31
0
0
LINE
5
408
100
AcDbEntity
8
0
100
AcDbLine
10
19.71716
20
6.9868160968229365
30
0
11
19.181959999999993
21
7.3135760968229402
31
0
0
LINE
5
409
100
AcDbEntity
8
0
100
AcDbLine
10
-20.106520000000003
20
4.8182960968229427
30
0
11
-20.105200000000004
21
4.8188960968229377
31
0
0
LINE
5
410
100
AcDbEntity
8
0
100
AcDbLine
10
-20.105920000000005
20
4.8188960968229377
30
0
11
-20.113000000000003
21
4.8142160968229319
31
0
0
LINE
5
411
100
AcDbEntity
8
0
100
AcDbLine
10
13.338080000000005
20
-0.94746390317706797
30
0
11
14.392759999999997
21
-0.41358390317705912
31
0
0
LINE
5
412
100
AcDbEntity
8
0
100
AcDbLine
10
11.14411999999999
20
5.446376096822938
30
0
11
11.032759999999994
21
6.6268160968229406
31
0
0
LINE
5
413
100
AcDbEntity
8
0
100
AcDbLine
10
15.926599999999997
20
6.4672160968229431
30
0
11
15.536119999999995
21
6.0611360968229366
31
0
0
LINE
5
414
100
AcDbEntity
8
0
100
AcDbLine
10
10.762640000000003
20
-2.252103903177058
30
0
11
12.085640000000001
21
-1.5822639031770611
31
0
0
LINE
5
415
100
AcDbEntity
8
0
100
AcDbLine
10
9.6298399999999997
20
17.947736096822933
30
0
11
8.4723199999999945
21
18.986096096822944
31
0
0
LINE
5
416
100
AcDbEntity
8
0
100
AcDbLine
10
1.4585600000000052
20
22.863776096822946
30
0
11
0.36679999999999913
21
22.950416096822934
31
0
0
LINE
5
417
100
AcDbEntity
8
0
100
AcDbLine
10
-19.376080000000002
20
-11.471583903177063
30
0
11
-18.7822
21
-11.75346390317706
31
0
0
LINE
5
418
100
AcDbEntity
8
0
100
AcDbLine
10
-10.556439999999998
20
2.7016160968229386
30
0
11
-10.183359999999999
21
2.2889360968229338
31
0
0
LINE
5
419
100
AcDbEntity
8
0
100
AcDbLine
10
-15.125439999999999
20
6.0622160968229366
30
0
11
-15.518560000000001
21
6.4692560968229529
31
0
0
LINE
5
420
100
AcDbEntity
8
0
100
AcDbLine
10
-13.043440000000002
20
-12.125703903177056
30
0
11
-12.697000000000001
21
-11.450703903177057
31
0
0
LINE
5
421
100
AcDbEntity
8
0
100
AcDbLine
10
-11.250400000000004
20
6.4164560968229445
30
0
11
-11.335719999999998
21
5.2777760968229437
31
0
0
LINE
5
422
100
AcDbEntity
8
0
100
AcDbLine
10
-0.68920000000000003
20
-9.3888639031770538
30
0
11
-0.029080000000002645
21
-9.5221839031770585
31
0
0
LINE
5
423
100
AcDbEntity
8
0
100
AcDbLine
10
-19.713160000000002
20
6.4666160968229391
30
0
11
-19.92484
21
5.9647760968229502
31
0
0
LINE
5
424
100
AcDbEntity
8
0
100
AcDbLine
10
20.33491999999999
20
5.9652560968229373
30
0
11
20.122640000000001
21
6.4666160968229391
31
0
0
LINE
5
425
100
AcDbEntity
8
0
100
AcDbLine
10
-2.9000799999999991
20
22.577216096822941
30
0
11
-5.3551599999999997
21
21.69389609682294
31
0
0
LINE
5
426
100
AcDbEntity
8
0
100
AcDbLine
10
3.9033199999999937
20
22.233536096822945
30
0
11
2.7502400000000051
21
22.617656096822945
31
0
0
LINE
5
427
100
AcDbEntity
8
0
100
AcDbLine
10
-10.046559999999999
20
2.1638960968229441
30
0
11
-10.26136
21
2.2633760968229404
31
0
0
LINE
5
428
100
AcDbEntity
8
0
100
AcDbLine
10
11.472919999999995
20
-5.9722239031770563
30
0
11
10.477399999999994
21
-5.4989439031770537
31
0
0
LINE
5
429
100
AcDbEntity
8
0
100
AcDbLine
10
-13.523199999999999
20
-13.685103903177058
30
0
11
-13.256920000000003
21
-13.127103903177058
31
0
0
LINE
5
430
100
AcDbEntity
8
0
100
AcDbLine
10
2.7502400000000051
20
22.617656096822945
30
0
11
1.4585600000000052
21
22.863776096822946
31
0
0
LINE
5
431
100
AcDbEntity
8
0
100
AcDbLine
10
-14.801919999999999
20
5.6039360968229346
30
0
11
-15.016
21
5.9106560968229438
31
0
0
LINE
5
432
100
AcDbEntity
8
0
100
AcDbLine
10
0.0034400000000043424
20
22.950416096822934
30
0
11
-0.72244000000000108
21
22.950416096822934
31
0
0
LINE
5
433
100
AcDbEntity
8
0
100
AcDbLine
10
-8.5375599999999991
20
-4.775583903177063
30
0
11
-9.4762000000000022
21
-5.2234239031770535
31
0
0
LINE
5
434
100
AcDbEntity
8
0
100
AcDbLine
10
8.2632799999999964
20
19.176296096822945
30
0
11
7.6337600000000041
21
19.741376096822947
31
0
0
LINE
5
435
100
AcDbEntity
8
0
100
AcDbLine
10
-6.1066000000000029
20
21.312296096822941
30
0
11
-7.2497199999999982
21
20.486096096822941
31
0
0
LINE
5
436
100
AcDbEntity
8
0
100
AcDbLine
10
-18.425560000000004
20
-13.614783903177061
30
0
11
-18.148240000000001
21
-14.193543903177058
31
0
0
LINE
5
437
100
AcDbEntity
8
0
100
AcDbLine
10
10.024279999999994
20
2.2322960968229482
30
0
11
10.603159999999995
21
2.9634560968229451
31
0
0
LINE
5
438
100
AcDbEntity
8
0
100
AcDbLine
10
-18.471760000000003
20
-13.334703903177058
30
0
11
-18.458680000000001
21
-13.412943903177062
31
0
0
LINE
5
439
100
AcDbEntity
8
0
100
AcDbLine
10
-0.72244000000000108
20
22.950416096822934
30
0
11
-2.9000799999999991
21
22.577216096822941
31
0
0
LINE
5
440
100
AcDbEntity
8
0
100
AcDbLine
10
-5.8565200000000015
20
21.438656096822946
30
0
11
-6.1066000000000029
21
21.312296096822941
31
0
0
LINE
5
441
100
AcDbEntity
8
0
100
AcDbLine
10
-20.271160000000002
20
4.7185760968229395
30
0
11
-20.692360000000004
21
4.3494560968229479
31
0
0
LINE
5
442
100
AcDbEntity
8
0
100
AcDbLine
10
18.590719999999997
20
7.4549360968229372
30
0
11
18.394160000000003
21
7.4549360968229372
31
0
0
LINE
5
443
100
AcDbEntity
8
0
100
AcDbLine
10
0.36679999999999913
20
22.950416096822934
30
0
11
0.0034400000000043424
21
22.950416096822934
31
0
0
LINE
5
444
100
AcDbEntity
8
0
100
AcDbLine
10
-18.747760000000003
20
-11.924103903177059
30
0
11
-18.588160000000002
21
-12.722223903177055
31
0
0
LINE
5
445
100
AcDbEntity
8
0
100
AcDbLine
10
6.7828400000000091
20
20.465216096822942
30
0
11
5.8948400000000092
21
21.13589609682294
31
0
0
LINE
5
446
100
AcDbEntity
8
0
100
AcDbLine
10
4.9429999999999943
20
21.732296096822949
30
0
11
3.9033199999999937
21
22.233536096822945
31
0
0
LINE
5
447
100
AcDbEntity
8
0
100
AcDbLine
10
19.807639999999999
20
6.8944160968229351
30
0
11
19.71716
21
6.9868160968229365
31
0
0
LINE
5
448
100
AcDbEntity
8
0
100
AcDbLine
10
-15.814839999999998
20
-15.272223903177057
30
0
11
-15.034840000000001
21
-15.035223903177055
31
0
0
LINE
5
449
100
AcDbEntity
8
0
100
AcDbLine
10
-20.113000000000003
20
4.8142160968229319
30
0
11
-20.113720000000001
21
4.8136160968229369
31
0
0
LINE
5
450
100
AcDbEntity
8
0
100
AcDbLine
10
20.122640000000001
20
6.4666160968229391
30
0
11
19.898719999999994
21
6.7999760968229417
31
0
0
LINE
5
451
100
AcDbEntity
8
0
100
AcDbLine
10
-13.256920000000003
20
-13.127103903177058
30
0
11
-13.230879999999996
21
-12.933063903177056
31
0
0
LINE
5
452
100
AcDbEntity
8
0
100
AcDbLine
10
-20.111680000000007
20
4.8136160968229369
30
0
11
-20.106520000000003
21
4.8182960968229427
31
0
0
LINE
5
453
100
AcDbEntity
8
0
100
AcDbLine
10
-11.419720000000002
20
8.5082960968229404
30
0
11
-11.230839999999997
21
8.2342160968229372
31
0
0
LINE
5
454
100
AcDbEntity
8
0
100
AcDbLine
10
16.601120000000002
20
6.9628160968229391
30
0
11
15.926599999999997
21
6.4672160968229431
31
0
0
LINE
5
455
100
AcDbEntity
8
0
100
AcDbLine
10
8.4723199999999945
20
18.986096096822944
30
0
11
8.2632799999999964
21
19.176296096822945
31
0
0
LINE
5
456
100
AcDbEntity
8
0
100
AcDbLine
10
-13.230879999999996
20
-12.933063903177056
30
0
11
-13.205439999999998
21
-12.72870390317706
31
0
0
LINE
5
457
100
AcDbEntity
8
0
100
AcDbLine
10
-21.113079999999997
20
3.7920560968229466
30
0
11
-21.370239999999999
21
3.2069360968229343
31
0
0
LINE
5
458
100
AcDbEntity
8
0
100
AcDbLine
10
-17.983360000000001
20
7.4549360968229372
30
0
11
-18.180760000000003
21
7.4549360968229372
31
0
0
LINE
5
459
100
AcDbEntity
8
0
100
AcDbLine
10
5.8948400000000092
20
21.13589609682294
30
0
11
4.9429999999999943
21
21.732296096822949
31
0
0
LINE
5
460
100
AcDbEntity
8
0
100
AcDbLine
10
19.181959999999993
20
7.3135760968229402
30
0
11
18.590719999999997
21
7.4549360968229372
31
0
0
LINE
5
461
100
AcDbEntity
8
0
100
AcDbLine
10
11.237959999999998
20
8.5050560968229494
30
0
11
11.790560000000003
21
9.335816096822942
31
0
0
LINE
5
462
100
AcDbEntity
8
0
100
AcDbLine
10
-10.55776
20
-10.025583903177058
30
0
11
-5.0785599999999995
21
-7.4460639031770626
31
0
0
LINE
5
463
100
AcDbEntity
8
0
100
AcDbLine
10
-14.710719999999997
20
5.4718160968229412
30
0
11
-14.801919999999999
21
5.6039360968229346
31
0
0
LINE
5
464
100
AcDbEntity
8
0
100
AcDbLine
10
10.850479999999997
20
7.7185760968229467
30
0
11
10.815440000000002
21
7.884656096822944
31
0
0
LINE
5
465
100
AcDbEntity
8
0
100
AcDbLine
10
-14.984079999999997
20
0.092936096822935632
30
0
11
-14.766760000000005
21
-0.017103903177062285
31
0
0
LINE
5
466
100
AcDbEntity
8
0
100
AcDbLine
10
7.6337600000000041
20
19.741376096822947
30
0
11
6.7828400000000091
21
20.465216096822942
31
0
0
LINE
5
467
100
AcDbEntity
8
0
100
AcDbLine
10
17.429960000000001
20
7.3189760968229489
30
0
11
16.601120000000002
21
6.9628160968229391
31
0
0
LINE
5
468
100
AcDbEntity
8
0
100
AcDbLine
10
-15.034840000000001
20
-15.035223903177055
30
0
11
-14.154760000000001
21
-14.446023903177053
31
0
0
LINE
5
469
100
AcDbEntity
8
0
100
AcDbLine
10
-13.205439999999998
20
-12.72870390317706
30
0
11
-13.043440000000002
21
-12.125703903177056
31
0
0
LINE
5
470
100
AcDbEntity
8
0
100
AcDbLine
10
-16.07452
20
-15.272223903177057
30
0
11
-15.814839999999998
21
-15.272223903177057
31
0
0
LINE
5
471
100
AcDbEntity
8
0
100
AcDbLine
10
-5.3551599999999997
20
21.69389609682294
30
0
11
-5.8565200000000015
21
21.438656096822946
31
0
0
LINE
5
472
100
AcDbEntity
8
0
100
AcDbLine
10
13.265960000000005
20
13.139096096822946
30
0
11
13.265960000000005
21
13.517456096822951
31
0
0
LINE
5
473
100
AcDbEntity
8
0
100
AcDbLine
10
18.394160000000003
20
7.4549360968229372
30
0
11
18.152599999999996
21
7.4549360968229372
31
0
0
LINE
5
474
100
AcDbEntity
8
0
100
AcDbLine
10
-19.396840000000001
20
6.8944160968229351
30
0
11
-19.488760000000006
21
6.7999760968229417
31
0
0
LINE
5
475
100
AcDbEntity
8
0
100
AcDbLine
10
19.898719999999994
20
6.7999760968229417
30
0
11
19.807639999999999
21
6.8944160968229351
31
0
0
ENDSEC
0
SECTION
2
OBJECTS
0
DICTIONARY
5
C
100
AcDbDictionary
3
ACAD_GROUP
350
D
3
ACAD_MLINESTYLE
350
17
0
DICTIONARY
5
D
100
AcDbDictionary
0
DICTIONARY
5
1A
330
C
100
AcDbDictionary
0
DICTIONARY
5
17
100
AcDbDictionary
0
ENDSEC
0
EOF
